<svg width="64" height="64" viewBox="0 0 64 64" fill="none" xmlns="http://www.w3.org/2000/svg">
<path d="M34.618 37.3356H54.6761C56.8862 37.3356 58.6778 35.544 58.6778 33.3339V17.3272C58.6778 15.1172 56.8862 13.3256 54.6761 13.3256H27.9984C25.7883 13.3256 23.9967 15.1172 23.9967 17.3272V34.6678" stroke="#3b5998" stroke-width="2.5" stroke-linecap="round" stroke-linejoin="round"/>
<path d="M38.5081 22.5014C40.0727 20.9514 42.5958 20.9573 44.1532 22.5147C45.7105 24.072 45.7164 26.5951 44.1664 28.1598" stroke="#3b5998" stroke-width="2.5" stroke-linecap="round" stroke-linejoin="round"/>
<path d="M23.9967 21.3289H17.8827C16.6402 21.3289 15.4148 21.6181 14.3036 22.1738L12.7423 22.9544C11.381 23.635 10.242 24.6897 9.45892 25.9948L5.32227 32.8892" stroke="#3b5998" stroke-width="2.5" stroke-linecap="round" stroke-linejoin="round"/>
<path d="M7.98999 56.01L23.3614 50.4557C25.5068 49.6804 27.3474 48.2381 28.613 46.3402L36.5973 34.3672C37.7586 32.6258 37.5291 30.3068 36.0491 28.8267V28.8267C34.3348 27.1124 31.5554 27.1121 29.8407 28.8261L23.9967 34.6677H18.6611" stroke="#3b5998" stroke-width="2.5" stroke-linecap="round" stroke-linejoin="round"/>
</svg>
