<svg width="64" height="64" viewBox="0 0 64 64" fill="none" xmlns="http://www.w3.org/2000/svg">
<path d="M53.3333 29.3333V16C53.3333 11.5817 49.7516 8 45.3333 8H16C11.5817 8 8 11.5817 8 16V40C8 44.4183 11.5817 48 16 48H26.6667" stroke="#3b5998" stroke-width="2.5" stroke-linecap="round" stroke-linejoin="round"/>
<path d="M30.6666 32.0001H37.3333" stroke="#3b5998" stroke-width="2.5" stroke-linecap="round" stroke-linejoin="round"/>
<path d="M17.3334 31.4317L19.2395 33.149L23.0765 29.6936" stroke="#3b5998" stroke-width="2.5" stroke-linecap="round" stroke-linejoin="round"/>
<path fill-rule="evenodd" clip-rule="evenodd" d="M56 45.4227V53.3332C56 54.806 54.8061 55.9999 53.3334 55.9999H40C38.5273 55.9999 37.3334 54.806 37.3334 53.3332V45.2434C37.3334 44.4333 37.7016 43.6671 38.3342 43.1611L44.8889 37.9176C45.8628 37.1385 47.2466 37.1385 48.2205 37.9176L54.9992 43.3403C55.6318 43.8464 56 44.6126 56 45.4227Z" stroke="#3b5998" stroke-width="2.5" stroke-linecap="round" stroke-linejoin="round"/>
<path d="M30.6666 21.3333H42.6666" stroke="#3b5998" stroke-width="2.5" stroke-linecap="round" stroke-linejoin="round"/>
<path d="M17.3334 20.7649L19.2395 22.4823L23.0765 19.0269" stroke="#3b5998" stroke-width="2.5" stroke-linecap="round" stroke-linejoin="round"/>
</svg>
