<svg width="49" height="52" viewBox="0 0 49 52" fill="none" xmlns="http://www.w3.org/2000/svg">
<path d="M39.0067 20.6644V14.87C39.0067 13.4561 38.4438 12.0982 37.4434 11.0978L29.8989 3.55331C28.8985 2.55289 27.5406 1.98999 26.1267 1.98999H6.99339C4.0455 1.98999 1.65784 4.37765 1.65784 7.32555V44.6744C1.65784 47.6223 4.0455 50.01 6.99339 50.01H20.3323" stroke="#3b5998" stroke-width="2.5" stroke-linecap="round" stroke-linejoin="round"/>
<path d="M39.0067 15.3289H28.3356C26.863 15.3289 25.6678 14.1337 25.6678 12.6611V1.98999" stroke="#3b5998" stroke-width="2.5" stroke-linecap="round" stroke-linejoin="round"/>
<path d="M47.0101 50.0099L42.6376 45.6375" stroke="#3b5998" stroke-width="2.5" stroke-linecap="round" stroke-linejoin="round"/>
<path d="M35.6026 28.6677C41.0903 28.6677 45.5375 33.1176 45.5375 38.6025C45.5375 44.0875 41.0876 48.5373 35.6026 48.5373C30.1177 48.5373 25.6678 44.0901 25.6678 38.6025C25.6678 33.1149 30.1177 28.6677 35.6026 28.6677" stroke="#3b5998" stroke-width="2.5" stroke-linecap="round" stroke-linejoin="round"/>
<path d="M39.4683 36.6711L34.6369 41.5025L31.7371 38.6026" stroke="#3b5998" stroke-width="2.5" stroke-linecap="round" stroke-linejoin="round"/>
</svg>
