<svg width="375" height="161" viewBox="0 0 375 161" fill="none" xmlns="http://www.w3.org/2000/svg">
    <path d="M34.432 134.536C26.752 134.536 20.0533 132.744 14.336 129.16C8.704 125.491 4.864 120.584 2.816 114.44L16.896 107.784C18.688 111.539 21.12 114.483 24.192 116.616C27.264 118.749 30.6773 119.816 34.432 119.816C37.1627 119.816 39.2533 119.261 40.704 118.152C42.1547 117.043 42.88 115.507 42.88 113.544C42.88 112.52 42.624 111.667 42.112 110.984C41.6 110.216 40.832 109.533 39.808 108.936C38.784 108.339 37.504 107.827 35.968 107.4L24.064 104.072C18.3467 102.451 13.952 99.848 10.88 96.264C7.808 92.5947 6.272 88.2853 6.272 83.336C6.272 78.984 7.38133 75.1867 9.6 71.944C11.8187 68.7013 14.9333 66.184 18.944 64.392C22.9547 62.5147 27.5627 61.576 32.768 61.576C39.5947 61.576 45.568 63.1973 50.688 66.44C55.8933 69.5973 59.5627 74.0773 61.696 79.88L47.488 86.536C46.464 83.6347 44.5867 81.3307 41.856 79.624C39.2107 77.832 36.1813 76.936 32.768 76.936C30.2933 76.936 28.3307 77.448 26.88 78.472C25.5147 79.496 24.832 80.904 24.832 82.696C24.832 83.6347 25.088 84.488 25.6 85.256C26.112 86.024 26.9227 86.7067 28.032 87.304C29.2267 87.9013 30.6773 88.456 32.384 88.968L43.52 92.296C49.3227 94.0027 53.76 96.6053 56.832 100.104C59.904 103.517 61.44 107.741 61.44 112.776C61.44 117.128 60.288 120.925 57.984 124.168C55.7653 127.411 52.6507 129.971 48.64 131.848C44.6293 133.64 39.8933 134.536 34.432 134.536ZM66.515 133V36.104H85.715V76.936L83.411 73.864C85.0323 69.6827 87.635 66.6107 91.219 64.648C94.8883 62.6 99.155 61.576 104.019 61.576C109.31 61.576 113.918 62.6853 117.843 64.904C121.854 67.1227 124.968 70.2373 127.187 74.248C129.406 78.1733 130.515 82.7813 130.515 88.072V133H111.315V92.168C111.315 89.4373 110.76 87.0907 109.651 85.128C108.627 83.1653 107.134 81.6293 105.171 80.52C103.294 79.4107 101.075 78.856 98.515 78.856C96.0403 78.856 93.8217 79.4107 91.859 80.52C89.8963 81.6293 88.3603 83.1653 87.251 85.128C86.227 87.0907 85.715 89.4373 85.715 92.168V133H66.515ZM158.372 134.536C153.337 134.536 148.985 133.725 145.316 132.104C141.647 130.483 138.831 128.179 136.868 125.192C134.905 122.12 133.924 118.493 133.924 114.312C133.924 110.387 134.82 106.931 136.612 103.944C138.404 100.872 141.135 98.312 144.804 96.264C148.559 94.216 153.209 92.7653 158.756 91.912L180.132 88.456V102.536L162.212 105.736C159.481 106.248 157.391 107.144 155.94 108.424C154.489 109.619 153.764 111.368 153.764 113.672C153.764 115.805 154.575 117.469 156.196 118.664C157.817 119.859 159.823 120.456 162.212 120.456C165.369 120.456 168.143 119.773 170.532 118.408C172.921 117.043 174.756 115.208 176.036 112.904C177.401 110.515 178.084 107.912 178.084 105.096V86.92C178.084 84.2747 177.017 82.056 174.884 80.264C172.836 78.472 170.02 77.576 166.436 77.576C163.023 77.576 159.993 78.5147 157.348 80.392C154.788 82.2693 152.911 84.744 151.716 87.816L136.356 80.52C137.721 76.5947 139.897 73.224 142.884 70.408C145.871 67.592 149.455 65.416 153.636 63.88C157.817 62.344 162.383 61.576 167.332 61.576C173.22 61.576 178.425 62.6427 182.948 64.776C187.471 66.9093 190.969 69.896 193.444 73.736C196.004 77.4907 197.284 81.8853 197.284 86.92V133H179.364V121.736L183.716 120.968C181.668 124.04 179.407 126.6 176.932 128.648C174.457 130.611 171.684 132.061 168.612 133C165.54 134.024 162.127 134.536 158.372 134.536ZM204.965 133V63.112H222.885V79.88L221.605 77.448C223.141 71.56 225.658 67.592 229.157 65.544C232.741 63.4107 236.965 62.344 241.829 62.344H245.925V78.984H239.909C235.216 78.984 231.418 80.4347 228.517 83.336C225.616 86.152 224.165 90.1627 224.165 95.368V133H204.965ZM281.604 134.536C274.18 134.536 267.737 132.915 262.276 129.672C256.815 126.344 252.591 121.907 249.604 116.36C246.617 110.813 245.124 104.669 245.124 97.928C245.124 90.9307 246.66 84.7013 249.732 79.24C252.889 73.7787 257.113 69.4693 262.404 66.312C267.695 63.1547 273.668 61.576 280.324 61.576C285.871 61.576 290.777 62.472 295.044 64.264C299.311 65.9707 302.895 68.4027 305.796 71.56C308.783 74.7173 311.044 78.3867 312.58 82.568C314.116 86.664 314.884 91.144 314.884 96.008C314.884 97.3733 314.799 98.7387 314.628 100.104C314.543 101.384 314.329 102.493 313.988 103.432H261.636V89.352H303.108L294.02 96.008C294.873 92.3387 294.831 89.096 293.892 86.28C292.953 83.3787 291.289 81.1173 288.9 79.496C286.596 77.7893 283.737 76.936 280.324 76.936C276.996 76.936 274.137 77.7467 271.748 79.368C269.359 80.9893 267.567 83.3787 266.372 86.536C265.177 89.6933 264.708 93.5333 264.964 98.056C264.623 101.981 265.092 105.437 266.372 108.424C267.652 111.411 269.615 113.757 272.26 115.464C274.905 117.085 278.105 117.896 281.86 117.896C285.273 117.896 288.175 117.213 290.564 115.848C293.039 114.483 294.959 112.605 296.324 110.216L311.684 117.512C310.319 120.925 308.143 123.912 305.156 126.472C302.255 129.032 298.799 131.037 294.788 132.488C290.777 133.853 286.383 134.536 281.604 134.536ZM347.182 134.536C339.502 134.536 332.803 132.744 327.086 129.16C321.454 125.491 317.614 120.584 315.566 114.44L329.646 107.784C331.438 111.539 333.87 114.483 336.942 116.616C340.014 118.749 343.427 119.816 347.182 119.816C349.913 119.816 352.003 119.261 353.454 118.152C354.905 117.043 355.63 115.507 355.63 113.544C355.63 112.52 355.374 111.667 354.862 110.984C354.35 110.216 353.582 109.533 352.558 108.936C351.534 108.339 350.254 107.827 348.718 107.4L336.814 104.072C331.097 102.451 326.702 99.848 323.63 96.264C320.558 92.5947 319.022 88.2853 319.022 83.336C319.022 78.984 320.131 75.1867 322.35 71.944C324.569 68.7013 327.683 66.184 331.694 64.392C335.705 62.5147 340.313 61.576 345.518 61.576C352.345 61.576 358.318 63.1973 363.438 66.44C368.643 69.5973 372.313 74.0773 374.446 79.88L360.238 86.536C359.214 83.6347 357.337 81.3307 354.606 79.624C351.961 77.832 348.931 76.936 345.518 76.936C343.043 76.936 341.081 77.448 339.63 78.472C338.265 79.496 337.582 80.904 337.582 82.696C337.582 83.6347 337.838 84.488 338.35 85.256C338.862 86.024 339.673 86.7067 340.782 87.304C341.977 87.9013 343.427 88.456 345.134 88.968L356.27 92.296C362.073 94.0027 366.51 96.6053 369.582 100.104C372.654 103.517 374.19 107.741 374.19 112.776C374.19 117.128 373.038 120.925 370.734 124.168C368.515 127.411 365.401 129.971 361.39 131.848C357.379 133.64 352.643 134.536 347.182 134.536Z"
          fill="white"/>
</svg>
