<svg width="773" height="322" viewBox="0 0 773 322" fill="none" xmlns="http://www.w3.org/2000/svg">
<mask id="mask0_106_3" style="mask-type:alpha" maskUnits="userSpaceOnUse" x="484" y="74" width="152" height="191">
<path d="M484.872 265V74.5466H557.73C570.853 74.5466 582.442 76.8474 592.498 81.4489C602.723 86.0505 610.734 92.8676 616.528 101.9C622.323 110.933 625.22 122.096 625.22 135.389C625.22 148.342 622.237 159.42 616.272 168.623C610.307 177.656 602.297 184.473 592.242 189.074L635.701 265H591.22L544.181 180.894L569.746 195.977H524.497V265H484.872ZM524.497 161.465H557.986C563.61 161.465 568.467 160.357 572.558 158.142C576.648 155.926 579.801 152.858 582.016 148.938C584.402 145.019 585.595 140.502 585.595 135.389C585.595 130.106 584.402 125.505 582.016 121.585C579.801 117.665 576.648 114.597 572.558 112.382C568.467 110.166 563.61 109.058 557.986 109.058H524.497V161.465Z" fill="black"/>
</mask>
<g mask="url(#mask0_106_3)">
<rect x="546" y="180" width="242" height="190" fill="#4168CE"/>
<path d="M473.185 -0.674072H588.109C587.867 -0.175386 677 208.314 629 192.407C581 176.5 609 203 483.782 195.36C358.565 187.72 473.185 -0.674072 473.185 -0.674072Z" fill="white"/>
<rect x="300" y="185" width="251" height="185" fill="white"/>
</g>
<path d="M86.1514 268.068C74.2214 268.068 62.9732 265.937 52.4066 261.677C42.0105 257.246 32.9778 251.025 25.3086 243.015C17.8097 235.005 12.1856 225.546 8.43619 214.638L40.9027 200.067C45.6747 210.463 52.2362 218.644 60.5872 224.609C69.1086 230.574 78.4821 233.556 88.7078 233.556C94.1615 233.556 98.8483 232.704 102.768 231C106.688 229.295 109.756 226.995 111.971 224.097C114.187 221.03 115.295 217.451 115.295 213.36C115.295 208.929 113.931 205.18 111.204 202.112C108.477 198.874 104.217 196.317 98.4222 194.443L61.0985 182.172C45.9304 177.23 34.5117 170.242 26.8424 161.209C19.1732 152.006 15.3385 141.014 15.3385 128.231C15.3385 116.983 18.0654 107.098 23.5191 98.577C29.1432 90.0555 36.8977 83.4089 46.7825 78.6369C56.8378 73.8649 68.3417 71.4789 81.2942 71.4789C92.7129 71.4789 103.279 73.4388 112.994 77.3587C122.708 81.2785 131.059 86.8174 138.047 93.9754C145.205 101.133 150.573 109.74 154.152 119.795L121.941 134.367C118.362 125.505 112.994 118.602 105.836 113.66C98.6779 108.547 90.4973 105.991 81.2942 105.991C76.0109 105.991 71.3242 106.843 67.2339 108.547C63.1436 110.251 59.9907 112.722 57.7751 115.961C55.5596 119.028 54.4518 122.607 54.4518 126.698C54.4518 131.129 55.9004 135.049 58.7977 138.457C61.695 141.695 66.0409 144.252 71.8354 146.126L108.392 157.886C123.731 162.828 135.149 169.731 142.648 178.593C150.318 187.455 154.152 198.277 154.152 211.06C154.152 222.137 151.255 232.022 145.46 240.714C139.666 249.235 131.656 255.967 121.43 260.91C111.375 265.682 99.6152 268.068 86.1514 268.068ZM166.797 265V71.4789H205.143V153.029L200.541 146.893C203.779 138.542 208.977 132.407 216.135 128.487C223.464 124.397 231.985 122.352 241.7 122.352C252.266 122.352 261.469 124.567 269.309 128.998C277.319 133.429 283.54 139.65 287.971 147.66C292.402 155.5 294.618 164.703 294.618 175.27V265H256.271V183.45C256.271 177.996 255.164 173.31 252.948 169.39C250.903 165.47 247.92 162.402 244 160.187C240.251 157.971 235.82 156.863 230.707 156.863C225.765 156.863 221.334 157.971 217.414 160.187C213.494 162.402 210.426 165.47 208.211 169.39C206.165 173.31 205.143 177.996 205.143 183.45V265H166.797ZM295.802 265L360.224 74.5466H412.886L477.308 265H434.104L421.322 226.142H351.532L338.75 265H295.802ZM362.525 191.631H410.33L381.186 101.645H391.923L362.525 191.631Z" fill="white"/>
<path d="M638.872 265V74.5466H766.949V109.058H678.497V152.262H761.836V186.773H678.497V230.488H766.949V265H638.872Z" fill="white"/>
</svg>
