<svg width="82" height="32" viewBox="0 0 82 32" fill="none" xmlns="http://www.w3.org/2000/svg">
<g clip-path="url(#clip0_900_4831)">
<path d="M29.2345 13.7854C29.8694 13.7854 31.3612 13.6951 31.8607 13.3782C32.0874 13.2418 32.1777 12.7884 32.1777 12.335C32.1777 10.8393 31.2469 9.84227 29.7052 9.84227C27.8023 9.84227 26.1702 11.6558 26.1702 13.1063C26.1702 13.7403 26.8042 13.7854 28.2556 13.7854H29.2345ZM27.0405 15.7796C25.9983 15.7796 25.908 15.8709 25.908 16.5961C25.908 19.9956 27.2864 23.3038 31.5014 23.3038C32.7704 23.3038 34.4927 23.032 35.7165 20.9475C36.215 20.8563 36.8951 21.2194 36.8951 21.9897C35.0364 25.8426 31.683 27.1567 28.9626 27.1567C22.8438 27.1567 19.5355 22.8504 19.5355 17.9102C19.5355 12.1995 23.6602 7.75781 29.3257 7.75781C34.0393 7.75781 36.5781 10.7942 36.5781 14.284C36.5781 15.1456 36.3514 15.7796 34.9461 15.7796" fill="white"/>
<path d="M74.5968 9.84227C76.1376 9.84227 77.0684 10.8393 77.0684 12.335C77.0684 12.7884 76.9781 13.2418 76.7514 13.3782C76.2519 13.6951 74.7601 13.7854 74.1261 13.7854H73.1463C71.6959 13.7854 71.0609 13.7403 71.0609 13.1063C71.0609 11.6558 72.6929 9.84227 74.5968 9.84227ZM80.6071 20.9475C79.3834 23.032 77.6611 23.3038 76.3921 23.3038C72.1771 23.3038 70.7987 19.9956 70.7987 16.5961C70.7987 15.8709 70.889 15.7796 71.9312 15.7796H79.8368C81.2421 15.7796 81.4688 15.1456 81.4688 14.284C81.4688 10.7942 78.93 7.75781 74.2164 7.75781C72.5854 7.75781 71.083 8.12763 69.7689 8.78851C69.7709 8.84519 69.7728 8.9009 69.7737 8.96334C69.7785 9.8682 69.6604 10.0776 69.4933 10.2745C69.2195 10.5963 68.891 10.6511 68.1158 10.7481C67.282 10.8893 67.1149 11.0219 66.2196 12.7365C65.5866 14.0016 65.0304 15.2724 64.5079 16.5605C64.456 17.0015 64.4262 17.451 64.4262 17.9102C64.4262 22.8514 67.7344 27.1567 73.8533 27.1567C76.5737 27.1567 79.9271 25.8426 81.7858 21.9897C81.7858 21.2194 81.1057 20.8563 80.6071 20.9475Z" fill="white"/>
<path d="M25.9724 1.93171C27.103 2.21412 27.4805 2.40335 27.4805 2.73283C27.4805 3.01524 27.3393 3.53395 27.0088 4.42921C26.8061 5.00363 26.4161 6.05066 25.9445 7.29365C26.9522 6.97186 28.0328 6.79319 29.1663 6.77782C29.8329 5.33984 30.4208 4.21308 30.9683 3.39275C31.5802 2.40335 32.3823 2.07291 33.7012 1.83757L34.9269 1.60223C35.2563 1.31886 35.2093 0.188257 34.8327 -0.000976562C33.4658 0.0941208 32.0519 0.141189 30.4496 0.141189C28.6581 0.141189 26.8676 0.0941208 24.6525 -0.000976562C24.0867 0.234365 24.0867 1.22472 24.4643 1.60223" fill="white"/>
<path d="M21.2377 25.0595C19.9332 23.6725 19.0716 21.8896 18.7238 19.9128L18.1965 18.568L14.0487 7.96414C12.9181 5.13619 12.1631 3.1574 12.1631 2.7799C12.1631 2.35532 12.4935 2.07291 13.3417 1.88464L14.7557 1.60223C15.0381 1.17765 15.0852 0.282394 14.7086 -0.000976562C11.8336 0.0941208 9.80774 0.141189 7.63876 0.141189C5.18832 0.141189 3.63315 0.0470523 1.22978 -0.000976562C0.805205 0.235326 0.664 1.08352 1.04151 1.60223L2.92616 2.07291C4.43427 2.45042 4.67057 2.54455 6.46109 7.06888L14.0958 26.2497C14.7557 27.8529 15.5568 30.3504 16.0755 31.6232C16.3579 31.8585 16.7825 31.9997 17.3483 31.9997C18.0553 31.9997 18.6201 31.8585 18.9976 31.6232C19.669 29.9863 20.3962 27.9317 21.425 25.2478C21.3625 25.1854 21.2982 25.1239 21.2377 25.0595Z" fill="white"/>
<path d="M38.3657 14.7111C38.3657 12.9273 38.3657 12.3923 37.5195 11.8572L36.8951 11.4567C36.5829 11.1887 36.5829 10.3866 36.8951 10.1195C38.9459 9.53936 42.0217 8.33575 43.403 7.44434C43.7603 7.44434 44.0274 7.57786 44.206 7.84586C44.1167 8.73727 44.0274 9.36165 44.0274 9.76221C44.0274 10.0744 44.1167 10.2079 44.4731 10.2973C45.6767 9.53936 46.9696 8.06871 48.8418 8.06871C50.0454 8.06871 51.2941 9.00431 51.2941 10.6988C51.2941 12.7486 49.8677 13.5959 48.4412 13.5959C47.8169 13.5959 47.2818 13.3288 46.7026 12.7938C45.6767 11.9466 45.2761 11.9024 45.0081 11.9024C44.3838 11.9024 44.1609 12.8831 44.1609 14.5766V21.3525C44.1609 24.4735 44.3396 24.8298 45.8102 24.9643L47.2367 25.0978C47.594 25.3649 47.594 26.3908 47.1925 26.6578C45.0533 26.5685 43.2695 26.5243 41.1745 26.5243C39.3465 26.5243 37.385 26.5685 35.9143 26.6578C35.5128 26.3908 35.5128 25.3649 35.8692 25.0978L36.7164 25.0085C38.188 24.875 38.3657 24.4735 38.3657 21.3525" fill="white"/>
<path d="M51.2778 11.0688C51.2759 11.0842 51.273 11.0967 51.272 11.1121C51.273 11.0967 51.2759 11.0842 51.2778 11.0688Z" fill="white"/>
<path d="M68.6527 8.03711C67.6557 8.08322 67.6345 8.17447 66.1841 8.17447C64.87 8.17447 65.3752 8.00349 64.9257 8.16679C64.4771 8.33009 64.0862 9.84492 63.9699 10.2349C63.8912 10.4981 63.6952 11.0082 63.5136 11.4654C62.5617 14.254 61.4282 16.6765 60.4312 18.9618C59.4792 16.7678 58.4821 14.3913 57.5754 11.8765C57.3487 11.1916 57.1681 10.5509 57.1681 10.2772C57.1681 10.0025 57.3948 9.9573 57.9385 9.81994L58.6637 9.63743C58.9355 9.40881 58.9807 8.26573 58.5734 8.03711C56.8962 8.08322 55.2191 8.17447 53.5419 8.17447C52.5515 8.17447 51.8157 8.13989 51.2615 8.10435C51.9156 8.76811 52.2778 9.6845 52.2778 10.6989C52.2778 11.7862 51.9569 12.6268 51.4526 13.2454C51.5468 13.4375 51.6467 13.643 51.7562 13.8688C54.612 19.9483 55.0375 21.0184 57.3948 26.778C57.6666 26.9605 58.0749 27.0979 58.4821 27.0979C58.9355 27.0979 59.2986 26.9605 59.5253 26.778C61.6098 21.8877 62.9872 16.9964 65.3445 12.2886C66.2503 10.5509 66.6134 10.0025 67.9727 9.77383C67.9727 9.77383 68.7046 9.68258 68.743 9.63743C68.7824 9.59132 68.8583 8.43383 68.6527 8.03711Z" fill="white"/>
</g>
<defs>
<clipPath id="clip0_900_4831">
<rect width="80.9627" height="32" fill="white" transform="translate(0.82251)"/>
</clipPath>
</defs>
</svg>
