<svg width="161" height="28" viewBox="0 0 161 28" fill="none" xmlns="http://www.w3.org/2000/svg">
<g clip-path="url(#clip0_789_5902)">
<path d="M76.7861 12.3856H72.5107H70.7281H69.6844H63.4467V17.4754H68.9059C67.7766 19.2319 65.8069 20.3996 63.5682 20.3996C60.0712 20.3996 57.2263 17.5547 57.2263 14.0578C57.2263 10.5609 60.0712 7.71597 63.5682 7.71597C65.4933 7.71597 67.2201 8.57997 68.384 9.93858H69.6609H71.6777H76.2419C74.5065 4.58348 69.4774 0.712177 63.5446 0.712177C59.2556 0.712177 55.4401 2.73522 52.998 5.88011V1.35182H46.2694L39.0128 11.8191L31.7549 1.35182H25.0263V5.87887C22.5842 2.73522 18.7687 0.710938 14.4797 0.710938C7.10773 0.710937 1.13281 6.68585 1.13281 14.0578C1.13281 21.4285 7.10773 27.4047 14.4797 27.4047C18.7687 27.4047 22.5842 25.3816 25.0263 22.2367V26.7638H32.0028V12.6397L39.0115 22.4871L46.0203 12.6397V26.7626H52.9968V22.2355C55.4388 25.3792 59.2543 27.4034 63.5434 27.4034C69.8964 27.4034 75.2106 22.9656 76.5593 17.0205C76.775 16.0672 76.8903 15.0755 76.8903 14.0566C76.8903 13.4913 76.8543 12.9335 76.7861 12.3856ZM20.4757 16.118C20.4695 16.1366 20.4633 16.1552 20.4571 16.1738C20.4348 16.237 20.41 16.3003 20.3864 16.3622C20.3703 16.4031 20.3554 16.4441 20.3381 16.4837C20.322 16.5234 20.3034 16.5631 20.286 16.6027C20.2587 16.6647 20.2315 16.7267 20.2029 16.7874C20.1943 16.8048 20.1856 16.8221 20.1769 16.8395C19.5559 18.1051 18.527 19.134 17.2614 19.755C17.244 19.7637 17.2267 19.7724 17.2093 19.7811C17.1486 19.8096 17.0866 19.8369 17.0246 19.8641C16.9849 19.8815 16.9453 19.8988 16.9056 19.9162C16.8659 19.9323 16.825 19.9484 16.7841 19.9645C16.7209 19.9893 16.6589 20.0129 16.5944 20.0352C16.5759 20.0414 16.5585 20.0476 16.5399 20.0538C15.2061 20.51 13.7508 20.51 12.417 20.0538C12.3984 20.0476 12.381 20.0414 12.3624 20.0352C12.2992 20.0129 12.236 19.9881 12.1728 19.9633C12.1319 19.9472 12.0922 19.9323 12.0513 19.915C12.0116 19.8988 11.9719 19.8802 11.931 19.8629C11.8691 19.8356 11.8071 19.8083 11.7476 19.7798C11.7302 19.7712 11.7129 19.7625 11.6955 19.7538C10.6034 19.2183 9.68735 18.3791 9.05763 17.3452C9.05515 17.3415 9.05267 17.3366 9.05019 17.3328C9.00061 17.251 8.95226 17.168 8.9064 17.0837C8.89648 17.0651 8.8878 17.0465 8.87789 17.0291C8.83946 16.9572 8.80227 16.8866 8.76756 16.8135C8.27792 15.7945 8.07462 14.6702 8.16015 13.5644L8.15767 13.562C8.23453 12.579 8.53452 11.6579 9.01053 10.8497C9.04771 10.7852 9.08738 10.722 9.12705 10.6588C9.1568 10.6117 9.18655 10.5633 9.21754 10.5175C9.24109 10.4815 9.26836 10.4468 9.29316 10.4109C9.37621 10.2931 9.46174 10.1778 9.55223 10.0663C9.56959 10.044 9.58694 10.0229 9.60554 10.0006C9.6638 9.93115 9.72206 9.86297 9.7828 9.79603C9.78776 9.79107 9.79148 9.78611 9.79644 9.78115C10.3319 9.19482 10.9753 8.71013 11.6955 8.35684C11.7129 8.34817 11.7302 8.33949 11.7476 8.33081C11.8083 8.30106 11.8703 8.27503 11.9323 8.24776C11.9719 8.2304 12.0116 8.21305 12.0513 8.1957C12.091 8.17958 12.1319 8.16347 12.1728 8.14735C12.236 8.12256 12.298 8.099 12.3612 8.07669C12.3798 8.07049 12.3984 8.0643 12.4157 8.0581C13.5661 7.66514 14.8082 7.6106 15.9846 7.89571C15.9895 7.89695 15.9932 7.89819 15.9982 7.89943C16.0912 7.92174 16.1841 7.94777 16.2759 7.97381C16.2957 7.98 16.3155 7.9862 16.3354 7.9924C16.4122 8.01595 16.4891 8.0395 16.5659 8.06678C17.6332 8.44114 18.5716 9.09193 19.2931 9.93487H19.2968C20.7905 11.6815 21.1835 14.0479 20.4757 16.118Z" fill="white"/>
<path d="M90.0616 13.922C88.9435 13.922 87.8923 13.6456 86.9068 13.0915C85.9213 12.5386 85.1305 11.7738 84.533 10.8007C83.9355 9.82638 83.6367 8.74792 83.6367 7.56285C83.6367 6.43357 83.9132 5.37742 84.4673 4.39193C85.0201 3.40644 85.7899 2.61805 86.7754 2.02552C87.7609 1.43299 88.8567 1.13672 90.0629 1.13672C91.2355 1.13672 92.3152 1.42431 93.3007 1.99949C94.2862 2.57466 95.0634 3.35562 95.6337 4.33987C96.2039 5.32536 96.489 6.39886 96.489 7.56037C96.489 8.70081 96.2014 9.7582 95.6262 10.7313C95.051 11.7056 94.2726 12.4804 93.2933 13.0556C92.3115 13.6345 91.2343 13.922 90.0616 13.922ZM94.2118 7.54673C94.2118 6.79429 94.0296 6.08896 93.6639 5.42948C93.2982 4.77125 92.7974 4.24566 92.1615 3.8527C91.5244 3.45975 90.819 3.26389 90.0443 3.26389C89.303 3.26389 88.6137 3.45727 87.9766 3.84526C87.3407 4.23326 86.8361 4.75638 86.4655 5.41461C86.0949 6.07284 85.9089 6.78438 85.9089 7.54797C85.9089 8.30042 86.0911 9.00327 86.4568 9.65655C86.8225 10.3098 87.3221 10.8305 87.9592 11.2172C88.5952 11.6052 89.2955 11.7986 90.0591 11.7986C90.8339 11.7986 91.5367 11.6015 92.1677 11.2085C92.7987 10.8156 93.297 10.2949 93.6614 9.64787C94.0296 8.99956 94.2118 8.29918 94.2118 7.54673Z" fill="white"/>
<path d="M107.477 6.16739C106.901 6.16739 106.437 6.36696 106.082 6.76488C105.728 7.16279 105.55 7.78383 105.55 8.62429V13.672H103.343V8.49165C103.343 7.78383 103.185 7.21857 102.869 6.79835C102.554 6.37812 102.103 6.16739 101.515 6.16739C100.907 6.16739 100.458 6.38308 100.17 6.81446C99.8828 7.24584 99.739 7.96606 99.739 8.97262V13.6707H97.5312V4.45796H99.5568V5.23768H99.5902C99.8121 4.88315 100.132 4.61292 100.553 4.4245C100.974 4.23607 101.455 4.14186 101.998 4.14186C102.55 4.14186 103.057 4.26583 103.517 4.51499C103.976 4.76415 104.355 5.12116 104.654 5.58601C105.02 5.07653 105.445 4.70961 105.932 4.48152C106.419 4.25467 106.983 4.14062 107.625 4.14062C108.311 4.14062 108.937 4.28194 109.501 4.56333C110.065 4.84596 110.516 5.28602 110.855 5.88351C111.192 6.48101 111.362 7.22849 111.362 8.12473V13.6695H109.154V8.49165C109.154 7.75036 109.013 7.17767 108.731 6.77355C108.448 6.36944 108.031 6.16739 107.477 6.16739Z" fill="white"/>
<path d="M116.843 6.16881C116.567 6.16881 116.284 6.24071 115.997 6.3845C115.709 6.5283 115.46 6.78614 115.249 7.15678C115.038 7.52742 114.934 8.02327 114.934 8.64307V13.6734H112.727V4.45939H114.769V5.25646C115.156 4.88086 115.549 4.60071 115.948 4.41848C116.347 4.23626 116.801 4.14453 117.309 4.14453C117.808 4.14453 118.331 4.26601 118.879 4.51022C119.427 4.75318 119.903 5.1796 120.307 5.78825C120.711 6.3969 120.913 7.21008 120.913 8.22904V13.6746H118.705V9.04099C118.703 7.12703 118.083 6.16881 116.843 6.16881Z" fill="white"/>
<path d="M124.462 1.38672V3.41224H122.254V1.38672H124.462ZM124.462 4.45847V13.6725H122.254V4.45847H124.462Z" fill="white"/>
<path d="M130.452 13.9714C129.567 13.9714 128.748 13.7471 127.995 13.2996C127.243 12.8508 126.648 12.2484 126.21 11.4897C125.773 10.7311 125.555 9.90924 125.555 9.02416C125.555 8.15023 125.773 7.33953 126.21 6.59204C126.648 5.84456 127.239 5.24955 127.987 4.80701C128.734 4.36447 129.55 4.14258 130.436 4.14258C131.487 4.14258 132.435 4.44132 133.275 5.03882C134.115 5.63631 134.714 6.46065 135.067 7.51307H132.577C132.323 7.07053 132.023 6.73584 131.681 6.50899C131.337 6.28214 130.922 6.1681 130.435 6.1681C129.926 6.1681 129.467 6.29578 129.057 6.5499C128.648 6.80526 128.329 7.15111 128.102 7.58745C127.875 8.02503 127.761 8.51468 127.761 9.05639C127.761 9.59934 127.883 10.089 128.127 10.5253C128.37 10.9629 128.702 11.3088 129.124 11.5629C129.544 11.817 130.015 11.9447 130.534 11.9447C131.365 11.9447 132.045 11.5182 132.576 10.6666H135.066C134.678 11.7178 134.078 12.5323 133.265 13.1074C132.453 13.6838 131.516 13.9714 130.452 13.9714Z" fill="white"/>
<path d="M135.57 9.07374C135.57 8.19982 135.788 7.38292 136.226 6.62427C136.662 5.86687 137.255 5.26318 138.002 4.81445C138.75 4.36571 139.577 4.14258 140.484 4.14258C141.392 4.14258 142.22 4.36447 142.966 4.80701C143.713 5.24955 144.3 5.84704 144.726 6.59948C145.152 7.35192 145.366 8.16635 145.366 9.04027C145.366 9.94767 145.155 10.7782 144.735 11.5306C144.313 12.2831 143.731 12.8781 142.983 13.3157C142.236 13.7533 141.403 13.9714 140.484 13.9714C139.598 13.9714 138.78 13.7495 138.027 13.307C137.275 12.8645 136.677 12.267 136.235 11.5145C135.791 10.7621 135.57 9.94891 135.57 9.07374ZM143.158 9.0911C143.158 8.59277 143.041 8.11676 142.81 7.66307C142.577 7.20937 142.256 6.8474 141.846 6.57593C141.436 6.30446 140.977 6.16934 140.468 6.16934C139.981 6.16934 139.532 6.30198 139.123 6.56725C138.714 6.83253 138.387 7.18954 138.144 7.63827C137.9 8.08701 137.778 8.5655 137.778 9.07498C137.778 9.58446 137.895 10.0605 138.126 10.503C138.359 10.9456 138.683 11.2976 139.098 11.5567C139.514 11.817 139.975 11.9472 140.484 11.9472C140.992 11.9472 141.45 11.817 141.854 11.5567C142.258 11.2964 142.577 10.948 142.808 10.5104C143.041 10.0729 143.158 9.59934 143.158 9.0911Z" fill="white"/>
<path d="M156.203 6.16739C155.628 6.16739 155.163 6.36696 154.809 6.76488C154.454 7.16279 154.277 7.78383 154.277 8.62429V13.672H152.069V8.49165C152.069 7.78383 151.912 7.21857 151.596 6.79835C151.281 6.37812 150.829 6.16739 150.242 6.16739C149.633 6.16739 149.185 6.38308 148.897 6.81446C148.609 7.24584 148.466 7.96606 148.466 8.97262V13.6707H146.258V4.45796H148.283V5.23768H148.317C148.539 4.88315 148.859 4.61292 149.28 4.4245C149.7 4.23607 150.181 4.14186 150.724 4.14186C151.277 4.14186 151.784 4.26583 152.244 4.51499C152.703 4.76415 153.082 5.12116 153.381 5.58601C153.746 5.07653 154.171 4.70961 154.659 4.48152C155.146 4.25467 155.71 4.14062 156.352 4.14062C157.037 4.14062 157.663 4.28194 158.227 4.56333C158.791 4.84596 159.243 5.28602 159.581 5.88351C159.918 6.48101 160.088 7.22849 160.088 8.12473V13.6695H157.88V8.49165C157.88 7.75036 157.739 7.17767 157.458 6.77355C157.175 6.36944 156.756 6.16739 156.203 6.16739Z" fill="white"/>
<path d="M93.9655 18.2047L90.45 26.5671H89.6505L86.161 18.2047H86.1349V26.5671H85.1953V17.1758H86.6419L90.0558 25.1713L93.4821 17.1758H94.9287V26.5671H93.9891V18.2047H93.9655Z" fill="white"/>
<path d="M99.6438 25.9336C100.194 25.9336 100.699 25.7861 101.16 25.4898C101.621 25.1936 101.945 24.7957 102.13 24.2973H103.07C102.807 25.0337 102.361 25.6237 101.731 26.0675C101.1 26.5113 100.41 26.7332 99.6562 26.7332C99.0042 26.7332 98.4018 26.572 97.8476 26.251C97.2935 25.9299 96.8535 25.4898 96.5275 24.9308C96.2014 24.3729 96.0391 23.7631 96.0391 23.1036C96.0391 22.4441 96.2039 21.8342 96.5337 21.2764C96.8634 20.7186 97.3059 20.2736 97.86 19.9438C98.4141 19.6141 99.0079 19.4492 99.6426 19.4492C100.319 19.4492 100.934 19.6228 101.49 19.9699C102.044 20.3169 102.481 20.7756 102.804 21.3471C103.125 21.9185 103.286 22.521 103.286 23.1556L103.273 23.4222H96.9539C96.9799 23.8709 97.1212 24.2874 97.3791 24.6717C97.6369 25.0572 97.9691 25.3634 98.3757 25.5915C98.7811 25.8196 99.2038 25.9336 99.6438 25.9336ZM99.6438 20.2475C99.2125 20.2475 98.8059 20.3467 98.4253 20.5463C98.0447 20.7459 97.7224 21.0248 97.4609 21.3842C97.1981 21.7437 97.0295 22.1565 96.9527 22.6214H102.371C102.245 21.9198 101.928 21.3483 101.425 20.9082C100.923 20.4682 100.329 20.2475 99.6438 20.2475Z" fill="white"/>
<path d="M110.418 25.3505C110.122 25.7905 109.735 26.1314 109.256 26.3719C108.778 26.6124 108.265 26.7339 107.714 26.7339C107.029 26.7339 106.4 26.5727 105.83 26.2517C105.259 25.9306 104.809 25.493 104.479 24.9377C104.149 24.3836 103.984 23.7638 103.984 23.0783C103.984 22.4014 104.154 21.7866 104.493 21.2313C104.831 20.6771 105.286 20.2408 105.857 19.9247C106.429 19.6074 107.047 19.4487 107.717 19.4487C108.259 19.4487 108.771 19.5689 109.253 19.8107C109.735 20.0511 110.124 20.3883 110.42 20.8197H110.445V17.1777H111.334V26.569H110.445V25.3505H110.418ZM110.494 23.1043C110.494 22.5973 110.371 22.1225 110.125 21.6825C109.88 21.2424 109.544 20.8941 109.116 20.635C108.689 20.3772 108.218 20.2482 107.701 20.2482C107.168 20.2482 106.685 20.3734 106.254 20.6226C105.823 20.8718 105.484 21.2151 105.239 21.6502C104.993 22.0866 104.871 22.575 104.871 23.1155C104.871 23.6398 104.993 24.1158 105.239 24.5435C105.484 24.9712 105.823 25.3096 106.254 25.5587C106.685 25.8079 107.171 25.9331 107.713 25.9331C108.22 25.9331 108.686 25.8067 109.109 25.5525C109.532 25.2984 109.868 24.9563 110.118 24.5249C110.368 24.0935 110.494 23.62 110.494 23.1043Z" fill="white"/>
<path d="M113.58 17.1777V18.7768H112.691V17.1777H113.58ZM113.58 19.6272V26.569H112.691V19.6272H113.58Z" fill="white"/>
<path d="M121.053 25.351C120.766 25.7824 120.385 26.1208 119.912 26.3662C119.438 26.6117 118.918 26.7344 118.351 26.7344C117.666 26.7344 117.037 26.5732 116.467 26.2522C115.895 25.9311 115.445 25.4936 115.116 24.9382C114.786 24.3841 114.621 23.7643 114.621 23.0788C114.621 22.402 114.791 21.7871 115.129 21.2318C115.468 20.6777 115.923 20.2413 116.494 19.9252C117.066 19.6079 117.684 19.4492 118.354 19.4492C118.929 19.4492 119.453 19.5719 119.927 19.8174C120.4 20.0628 120.777 20.405 121.056 20.845H121.081V19.6265H121.969V26.5683H121.081V25.351H121.053ZM121.129 23.1048C121.129 22.5978 121.006 22.1231 120.761 21.683C120.515 21.2429 120.18 20.8946 119.752 20.6355C119.324 20.3777 118.853 20.2488 118.336 20.2488C117.812 20.2488 117.333 20.374 116.902 20.6231C116.471 20.8723 116.13 21.2157 115.881 21.6508C115.631 22.0871 115.506 22.5755 115.506 23.116C115.506 23.6403 115.629 24.1188 115.874 24.5502C116.12 24.9816 116.461 25.32 116.896 25.5654C117.331 25.8109 117.816 25.9336 118.349 25.9336C118.856 25.9336 119.322 25.8072 119.744 25.5531C120.167 25.2989 120.503 24.9568 120.753 24.5254C121.004 24.094 121.129 23.6205 121.129 23.1048Z" fill="white"/>
<path d="M132.945 22.2528C132.877 23.0821 132.616 23.8395 132.158 24.525C131.702 25.2105 131.104 25.7497 130.369 26.1427C129.633 26.5356 128.838 26.7327 127.983 26.7327C127.129 26.7327 126.312 26.5208 125.534 26.098C124.755 25.6753 124.129 25.0915 123.656 24.3465C123.182 23.6027 122.945 22.7771 122.945 21.8722C122.945 20.9921 123.171 20.1802 123.625 19.4352C124.077 18.6914 124.688 18.1013 125.458 17.665C126.228 17.2299 127.066 17.0117 127.971 17.0117C128.648 17.0117 129.291 17.1382 129.9 17.3923C130.509 17.6464 131.034 17.9786 131.473 18.3889C131.913 18.7992 132.225 19.2281 132.412 19.6769H131.32C130.999 19.1265 130.53 18.6877 129.918 18.3567C129.304 18.027 128.66 17.8621 127.983 17.8621C127.255 17.8621 126.576 18.0418 125.946 18.4013C125.317 18.7608 124.815 19.248 124.443 19.8603C124.071 20.4739 123.884 21.1483 123.884 21.8846C123.884 22.6209 124.072 23.2953 124.449 23.9089C124.826 24.5225 125.33 25.0047 125.965 25.3555C126.6 25.7063 127.285 25.8824 128.02 25.8824C128.587 25.8824 129.135 25.7646 129.664 25.5266C130.192 25.2898 130.647 24.9601 131.029 24.5361C131.409 24.1134 131.672 23.6349 131.816 23.1019H126.575V22.2515H132.945V22.2528Z" fill="white"/>
<path d="M134.899 19.6265V20.6293H134.925C135.086 20.2574 135.317 19.9761 135.617 19.7852C135.917 19.5943 136.338 19.4827 136.88 19.4492V20.3888H136.868C136.242 20.4483 135.757 20.6665 135.415 21.0421C135.073 21.419 134.901 21.895 134.901 22.4701V26.5695H134.012V19.6277H134.899V19.6265Z" fill="white"/>
<path d="M137.133 23.142C137.133 22.4739 137.298 21.8565 137.627 21.2888C137.957 20.7223 138.4 20.2736 138.954 19.9438C139.508 19.6141 140.107 19.4492 140.75 19.4492C141.409 19.4492 142.019 19.6166 142.577 19.95C143.135 20.2847 143.578 20.731 143.904 21.2888C144.23 21.8466 144.392 22.4478 144.392 23.0912C144.392 23.7507 144.225 24.3605 143.891 24.9184C143.556 25.4762 143.11 25.9187 142.552 26.2448C141.995 26.5708 141.393 26.7332 140.75 26.7332C140.107 26.7332 139.508 26.5683 138.954 26.2386C138.4 25.9088 137.957 25.4688 137.627 24.9184C137.298 24.3692 137.133 23.7767 137.133 23.142ZM143.503 23.054C143.503 22.5544 143.38 22.0921 143.135 21.6644C142.89 21.2367 142.555 20.8946 142.132 20.6368C141.709 20.3789 141.248 20.25 140.749 20.25C140.258 20.25 139.803 20.3814 139.384 20.643C138.965 20.9058 138.633 21.2566 138.387 21.6966C138.142 22.1367 138.019 22.6152 138.019 23.1309C138.019 23.6304 138.142 24.0953 138.387 24.5267C138.633 24.958 138.966 25.3002 139.39 25.5543C139.813 25.8084 140.27 25.9349 140.761 25.9349C141.269 25.9349 141.732 25.8059 142.151 25.5481C142.57 25.2903 142.899 24.9407 143.141 24.5006C143.383 24.0606 143.503 23.5784 143.503 23.054Z" fill="white"/>
<path d="M150.598 25.4883C150.403 25.8863 150.113 26.1924 149.729 26.4081C149.343 26.6238 148.897 26.7317 148.39 26.7317C147.857 26.7317 147.364 26.6275 146.911 26.4205C146.459 26.2135 146.091 25.8763 145.808 25.4115C145.524 24.9466 145.383 24.3417 145.383 23.5967V19.625H146.272V23.4951C146.272 25.1189 146.978 25.9321 148.391 25.9321C148.798 25.9321 149.165 25.8367 149.496 25.647C149.826 25.4561 150.088 25.1735 150.283 24.7966C150.478 24.4198 150.576 23.9649 150.576 23.4318V19.625H151.464V26.5668H150.626V25.4883H150.598Z" fill="white"/>
<path d="M153.695 19.6265V20.845H153.721C154.042 20.3876 154.434 20.0418 154.895 19.805C155.356 19.5682 155.865 19.4492 156.424 19.4492C157.117 19.4492 157.748 19.6104 158.315 19.9314C158.881 20.2525 159.33 20.6925 159.66 21.2516C159.989 21.8094 160.154 22.4193 160.154 23.0788C160.154 23.7556 159.991 24.3717 159.666 24.9258C159.34 25.4799 158.894 25.92 158.327 26.246C157.761 26.572 157.126 26.7344 156.423 26.7344C155.873 26.7344 155.361 26.6154 154.887 26.3786C154.414 26.1419 154.024 25.7997 153.72 25.351H153.693V29.0054H152.805V19.6277H153.695V19.6265ZM156.411 20.2475C155.92 20.2475 155.461 20.374 155.034 20.6281C154.606 20.8822 154.267 21.2293 154.018 21.6694C153.769 22.1094 153.644 22.5879 153.644 23.1036C153.644 23.6118 153.767 24.0829 154.012 24.5192C154.258 24.9556 154.591 25.3002 155.015 25.5531C155.438 25.8072 155.907 25.9336 156.423 25.9336C156.965 25.9336 157.451 25.8084 157.882 25.5593C158.314 25.3101 158.652 24.9717 158.897 24.544C159.143 24.1163 159.266 23.6416 159.266 23.116C159.266 22.5829 159.145 22.0983 158.904 21.6632C158.663 21.2281 158.323 20.8822 157.888 20.6293C157.453 20.3752 156.961 20.2475 156.411 20.2475Z" fill="white"/>
</g>
<defs>
<clipPath id="clip0_789_5902">
<rect width="160" height="28" fill="white" transform="translate(0.679688)"/>
</clipPath>
</defs>
</svg>
