<svg width="131" height="24" viewBox="0 0 131 24" fill="none" xmlns="http://www.w3.org/2000/svg">
<g clip-path="url(#clip0_789_5900)">
<path d="M4.7877 0.476557L14.1648 19.2015L12.0063 23.4891L0.500031 0.476557L4.7877 0.476557ZM43.4125 0.476559L52.7895 19.2015L50.6311 23.4891L39.1118 0.476559L43.4125 0.476559ZM28.5338 23.5216L24.6876 23.5216L24.6876 0.476558L28.5208 0.476558L28.5338 23.5216ZM107.455 0.476561L118.994 11.9829L130.5 0.476562L130.5 23.4891L126.702 23.4891L126.702 9.74002L118.994 17.4195L107.455 5.82561L107.455 0.476561ZM67.1521 23.5216L63.3124 23.5216L63.3124 0.47656L67.1521 0.47656L67.1521 23.5216ZM96.8413 13.9108L96.8413 0.476561L93.0145 0.476561L93.0145 14.151C92.954 15.5867 92.3398 16.9431 91.3007 17.9356C90.5048 18.7448 89.4858 19.2983 88.3737 19.5256C87.2617 19.7529 86.1072 19.6436 85.0576 19.2116C84.008 18.7797 83.111 18.0447 82.4811 17.1005C81.8512 16.1563 81.517 15.0458 81.5212 13.9108L81.5212 0.47656L77.6944 0.47656L77.6944 13.9108C77.6748 15.1723 77.9121 16.4246 78.392 17.5914C78.8719 18.7582 79.5843 19.8151 80.4858 20.6978C82.2867 22.486 84.7218 23.4896 87.2597 23.4896C89.7977 23.4896 92.2327 22.486 94.0337 20.6978C94.9468 19.8225 95.6688 18.7676 96.1543 17.5995C96.6397 16.4314 96.878 15.1755 96.8542 13.9108L96.8413 13.9108Z" fill="white"/>
</g>
<defs>
<clipPath id="clip0_789_5900">
<rect width="24" height="130" fill="white" transform="translate(130.5) rotate(90)"/>
</clipPath>
</defs>
</svg>
