<svg width="93" height="32" viewBox="0 0 93 32" fill="none" xmlns="http://www.w3.org/2000/svg">
<g clip-path="url(#clip0_900_4735)">
<path d="M83.1743 4.82666L80.9761 10.1474H81.4925L85.6691 4.82666H83.1743Z" fill="white"/>
<path d="M5.44076 17.7223C4.20508 17.7309 2.98459 17.4497 1.87726 16.9013L0.963541 17.7223H0.541116L0.260376 12.5181L0.751668 12.4717C2.22951 15.8472 3.96425 16.9251 5.58113 16.9251C7.26953 16.9251 8.25475 15.8247 8.25475 14.3468C8.25475 12.9405 7.71446 12.2598 5.51227 11.3461C4.76143 11.0415 3.89406 10.737 3.16706 10.3847C1.52634 9.56503 0.65897 8.27523 0.65897 6.56432C0.65897 3.77417 3.07304 2.08578 5.44076 2.08578C6.61271 2.08578 7.40989 2.41419 8.18457 2.86046L9.09829 2.06592H9.49555L9.89282 6.65967L9.42404 6.73117C8.13425 4.15158 6.75175 2.89091 5.22756 2.89091C3.89141 2.89091 3.00021 3.78212 3.00021 5.16461C3.00021 6.26637 3.46899 7.11123 5.13354 7.83823C5.95456 8.21299 6.91596 8.5414 7.782 8.9625C9.67962 9.87754 10.5722 11.0733 10.5722 12.8028C10.5722 15.8962 7.96872 17.7249 5.43679 17.7249" fill="white"/>
<path d="M17.8435 7.07932C16.2014 7.07932 15.195 8.90808 15.195 12.1193C15.195 15.2842 16.2743 17.0878 17.9375 17.0878C19.6497 17.0878 20.5859 15.2617 20.5859 12.0492C20.5859 8.88557 19.5782 7.07932 17.8435 7.07932ZM17.7481 17.746C14.1859 17.746 12.4274 15.1902 12.4274 12.073C12.4274 9.18882 14.4428 6.42383 18.054 6.42383C21.6175 6.42383 23.3284 8.95443 23.3284 12.0492C23.3284 14.9625 21.3593 17.7433 17.7481 17.7433" fill="white"/>
<path d="M28.4162 17.6521C26.5623 17.6521 25.9783 16.7383 25.9783 15.0499V8.0408H24.2435V7.70974L26.3994 5.99883L28.1116 3.77148H28.4599V6.81721H32.0247V8.03683H28.4599V14.1084C28.4599 15.046 28.6002 15.6088 29.0703 15.9372C29.4676 16.2192 30.0079 16.3119 30.7812 16.3119C31.156 16.3119 31.6261 16.2881 32.071 16.2656L32.0936 16.594C31.1798 17.1555 29.6795 17.6534 28.4135 17.6534" fill="white"/>
<path d="M39.3649 8.20492C38.5157 8.19514 37.6775 8.39674 36.9256 8.79156V16.5502L38.2393 17.0415V17.3765H32.9424V17.0468L34.4189 16.5502V2.39023L32.802 1.33085V1.10176L36.8343 0L36.927 0.070184V8.28041L37.021 8.32676C38.4048 7.01444 39.6694 6.42913 40.9367 6.42913C43.0462 6.42913 43.9374 8.01821 43.9374 9.68674V16.5555L45.41 17.0415V17.3765H40.1131V17.0468L41.4267 16.5555V10.6428C41.4267 9.11864 40.8162 8.20492 39.3636 8.20492" fill="white"/>
<path d="M53.5487 10.4788C53.456 8.27531 52.8231 7.07953 51.4392 7.07953C50.0793 7.07953 49.0238 8.5097 48.9073 10.6894L53.5487 10.4788ZM48.8835 11.2734C48.8835 14.2502 49.7283 16.1968 52.3768 16.1968C53.5487 16.1968 54.5101 15.9625 55.9178 15.446L56.0581 15.7281C54.628 16.9689 53.0336 17.7435 51.5333 17.7435C48.322 17.7435 46.2112 15.54 46.2112 12.2811C46.2112 8.92948 48.7431 6.42139 51.6034 6.42139C54.6982 6.42139 56.1985 8.50705 56.1747 11.2734H48.8835Z" fill="white"/>
<path d="M62.809 8.06456C62.1719 8.06139 61.541 8.18894 60.9551 8.43932V15.8709C61.2865 16.2134 61.6837 16.4854 62.1229 16.6704C62.5622 16.8555 63.0343 16.9497 63.5109 16.9475C64.8934 16.9475 66.0415 15.7067 66.0415 12.4014C66.0415 9.49472 64.7993 8.06456 62.8064 8.06456M62.4091 17.746C61.1908 17.746 59.5726 17.4639 58.4483 17.1355V2.39156L56.8076 1.33217V1.10176L60.8624 0L60.9564 0.070184V7.92286L61.0504 7.97054C61.8701 7.14951 62.9957 6.42384 64.4484 6.42384C66.6771 6.42384 68.6926 8.46315 68.6926 11.8148C68.6926 15.1664 66.1606 17.746 62.4091 17.746Z" fill="white"/>
<path d="M75.1177 18.0969C73.9457 20.981 72.844 22.247 71.39 22.247C70.1479 22.247 69.5612 21.52 69.5612 20.7692C69.5612 20.0422 70.2233 19.4343 70.9689 19.4343C71.7634 19.4343 72.2348 19.8555 72.7963 20.5586C73.3113 19.9558 73.745 19.288 74.0861 18.5723L74.4834 17.6811L70.3346 7.67122L68.9031 7.10975V6.80518H74.6237V7.10975L73.1234 7.67122L75.6553 14.5413H75.7719L78.0694 7.83675L76.7107 7.10975V6.80518H80.7417V7.10975L79.2188 7.8831L75.1137 18.1035L75.1177 18.0969Z" fill="white"/>
<path d="M88.4832 17.746C87.2962 17.7597 86.1178 17.5443 85.0124 17.1117L84.9899 14.0183L85.4586 13.9719C86.7246 16.1993 87.686 17.0415 88.9281 17.0415C90.0299 17.0415 90.7105 16.3397 90.7105 15.2617C90.7105 14.0421 89.4684 13.5733 88.1309 13.0344C86.6544 12.4014 85.0852 11.6982 85.0852 9.75162C85.0852 7.8977 86.7259 6.42383 89.1175 6.42383C90.0312 6.42383 91.321 6.61054 91.954 6.84493L92.0242 9.63508L91.5792 9.75162C90.4298 7.854 89.6803 7.12567 88.601 7.12567C87.6171 7.12567 87.012 7.78778 87.012 8.62602C87.012 9.84564 88.2779 10.3383 89.6141 10.8772C91.0919 11.4877 92.6863 12.1895 92.6863 14.1878C92.6863 16.3688 90.7635 17.7513 88.4898 17.7513" fill="white"/>
<path d="M0.559692 31.8965H1.08276V26.4407H0.559692V31.8965ZM2.96979 31.8965H3.46373V27.2617H3.47829L6.58229 31.8965H7.04709V26.4407H6.55316V30.9431H6.53859L3.52994 26.4407H2.96979V31.8965ZM9.98821 31.8965H10.5113V26.9267H12.2738V26.4407H8.22566V26.9267H9.98821V31.8965ZM13.4537 31.8965H16.8663V31.4132H13.9768V29.2494H16.0187V28.778H13.9768V26.924H16.7113V26.438H13.4537V31.8939V31.8965ZM18.2819 31.8965H18.793V29.448H20.149L21.4838 31.8965H22.0731L20.6999 29.3897C21.4944 29.2428 22.0043 28.7991 22.0043 27.9159C22.0043 26.9571 21.3263 26.4407 20.1106 26.4407H18.2819V31.8965ZM18.7983 28.9832V26.9201H20.0656C20.9806 26.9201 21.4812 27.1849 21.4812 27.9371C21.4812 28.7316 20.9727 28.9845 20.0735 28.9845L18.7983 28.9832ZM23.8185 31.8965H24.3124V27.2617H24.327L27.431 31.8965H27.8958V26.4407H27.4005V30.9431H27.3846L24.3773 26.4407H23.8251V31.8965H23.8185ZM29.3034 31.8965H29.8119L30.3946 30.2147H32.606L33.1887 31.8965H33.7343L31.8022 26.4182H31.2408L29.3087 31.8965H29.3034ZM30.5561 29.7513L31.4924 27.0432H31.5056L32.4432 29.7566L30.5561 29.7513ZM35.8345 31.8965H36.3642V26.9267H38.1268V26.4407H34.0733V26.9267H35.8345V31.8965ZM39.3728 31.8965H39.9025V26.4407H39.3728V31.8965ZM43.768 31.9998C45.1015 31.9998 46.0668 30.8782 46.0668 29.1686C46.0668 27.459 45.1015 26.3374 43.768 26.3374C42.4345 26.3374 41.4665 27.459 41.4665 29.1686C41.4665 30.8782 42.4331 31.9998 43.768 31.9998ZM43.768 31.5271C42.7351 31.5271 41.9909 30.6504 41.9909 29.1686C41.9909 27.6868 42.7351 26.8168 43.768 26.8168C44.8009 26.8168 45.5424 27.6868 45.5424 29.1686C45.5424 30.6504 44.7982 31.5271 43.7666 31.5271H43.768ZM47.7407 31.8965H48.2346V27.2617H48.2505L51.3532 31.8965H51.818V26.4407H51.324V30.9431H51.3095L48.3008 26.4407H47.7407V31.8965ZM53.2336 31.8965H53.7421L54.3247 30.2147H56.5335L57.1149 31.8965H57.6618L55.739 26.4182H55.1709L53.2402 31.8965H53.2336ZM54.4863 29.7513L55.4225 27.0432H55.4371L56.3733 29.7566L54.4863 29.7513ZM59.1211 31.8965H62.3138V31.4132H59.6402V26.4407H59.1105V31.8965H59.1211ZM65.439 31.8965H65.9554V29.448H67.3114L68.6463 31.8965H69.2355L67.857 29.3897C68.6516 29.2428 69.1614 28.7991 69.1614 27.9159C69.1614 26.9571 68.4834 26.4407 67.2677 26.4407H65.4337V31.8965H65.439ZM65.9554 28.9832V26.9201H67.2227C68.1378 26.9201 68.6383 27.1849 68.6383 27.9371C68.6383 28.7316 68.1298 28.9845 67.2307 28.9845L65.9554 28.9832ZM70.8273 31.8965H74.2411V31.4132H71.3464V29.2494H73.3883V28.778H71.3464V26.924H74.0809V26.438H70.822V31.8939L70.8273 31.8965ZM74.9125 31.8965H75.421L75.9997 30.2214H78.2112L78.7938 31.9031H79.3394L77.4074 26.4248H76.8393L74.9085 31.9031L74.9125 31.8965ZM76.1652 29.7513L77.0962 27.0432H77.1107L78.047 29.7566L76.1652 29.7513ZM80.6676 31.8965H83.8603V31.4132H81.1801V26.4407H80.6504V31.8965H80.6676ZM85.3196 31.8965H85.8493V26.9267H87.6119V26.4407H83.5478V26.9267H85.309V31.8965H85.3196ZM90.0299 31.8965H90.5596V29.493L92.395 26.4407H91.8348L90.308 29.0441L88.7745 26.4407H88.2078L90.0352 29.493V31.8965H90.0299Z" fill="white"/>
</g>
<defs>
<clipPath id="clip0_900_4735">
<rect width="92.4193" height="32" fill="white" transform="translate(0.260376)"/>
</clipPath>
</defs>
</svg>
