<svg width="161" height="29" viewBox="0 0 161 29" fill="none" xmlns="http://www.w3.org/2000/svg">
<path d="M99.5673 12.9358L103.316 8.19141H105.902V20.9762H103.293V12.636L99.7862 16.6428H99.3534L95.8788 12.636V20.9762H93.2852V8.19141H95.8266L99.5673 12.9358Z" fill="white"/>
<path fill-rule="evenodd" clip-rule="evenodd" d="M68.5446 12.0978H66.0502V21.0393H68.5446V12.0978ZM66.0469 8.25781V10.2233H68.5446V8.25781H66.0469Z" fill="white"/>
<path d="M69.3767 18.1722C69.2352 20.6682 70.687 21.2173 72.8647 21.2173C74.9346 21.2173 76.2112 20.0485 76.2112 18.4906C76.2112 15.6274 71.8205 15.6914 71.8205 14.28C71.8205 13.6771 72.1219 13.3234 72.671 13.3234C72.7847 13.3108 72.8998 13.3214 73.0093 13.3547C73.1187 13.388 73.2202 13.4433 73.3076 13.5171C73.4845 13.6754 73.5552 14.0476 73.5552 14.6674H75.9973C76.1388 12.7373 74.5994 11.9238 72.9001 11.9238C71.2883 11.9238 69.3767 12.5066 69.3767 14.4384C69.3767 17.2864 73.7674 16.8636 73.7674 18.7584C73.774 18.8809 73.7547 19.0035 73.7107 19.1181C73.6667 19.2327 73.599 19.3367 73.512 19.4233C73.4251 19.5099 73.3208 19.5772 73.2061 19.6208C73.0913 19.6644 72.9687 19.6833 72.8462 19.6762C72.351 19.6762 72.0866 19.5348 71.9434 19.2518C71.8255 18.9055 71.7836 18.5379 71.8205 18.1739L69.3767 18.1722Z" fill="white"/>
<path d="M87.4843 12.097H84.9883V21.0385H87.4843V14.8777C87.4843 14.081 87.6274 13.4612 88.4241 13.4612C89.2207 13.4612 89.3639 14.081 89.3639 14.8777V21.0385H91.8599V13.8688C91.8599 12.6292 90.814 11.9219 89.63 11.9219C88.6902 11.9219 88.0165 12.2031 87.5213 13.0031H87.4843V12.097Z" fill="white"/>
<path d="M114.836 12.097V21.0385H117.33V16.1695C117.33 15.2836 117.366 14.0103 119.564 14.1484V11.9219C118.553 11.9219 117.711 12.2233 117.244 13.249H117.207V12.097H114.836Z" fill="white"/>
<path d="M132.181 21.0391H134.768C134.714 20.4547 134.678 19.8602 134.678 19.2673V12.0977H132.181V18.2956C132.181 19.0922 132.041 19.6749 131.244 19.6749C130.448 19.6749 130.306 19.0922 130.306 18.2956V12.0977H127.809V19.2673C127.809 20.5103 128.854 21.2177 130.04 21.2177C130.978 21.2177 131.65 20.9347 132.147 20.1364H132.181V21.0391Z" fill="white"/>
<path d="M143.266 13.6394H144.276V19.1451C144.276 19.6941 144.559 21.1274 146.72 21.1274C147.152 21.125 147.583 21.0951 148.012 21.0381V19.4987C147.866 19.5281 147.717 19.5394 147.569 19.5324C146.755 19.5324 146.774 19.0912 146.774 18.4192V13.6394H148.066V12.0966H146.774V9.57031L144.276 10.6853V12.1H143.266V13.6427V13.6394Z" fill="white"/>
<path d="M148.008 13.6394H149.018V19.1451C149.018 19.6941 149.301 21.1274 151.46 21.1274C151.893 21.1249 152.325 21.0951 152.754 21.0381V19.4987C152.608 19.5281 152.459 19.5394 152.311 19.5324C151.497 19.5324 151.514 19.0912 151.514 18.4192V13.6394H152.808V12.0966H151.514V9.57031L149.018 10.6853V12.1H148.008V13.6427V13.6394Z" fill="white"/>
<path d="M56.8565 19.3745V14.913C56.8565 13.2844 56.4472 11.9219 53.2792 11.9219C52.3226 11.9219 51.5091 12.0903 50.9432 12.5046C50.3773 12.9189 50.0152 13.6044 50.0152 14.684H52.459C52.459 13.9749 52.5281 13.3198 53.3971 13.3198C54.2982 13.3198 54.4076 13.8688 54.4076 14.6301V15.3206C52.0885 15.2836 49.8047 15.4082 49.8047 18.3657C49.8047 19.9236 50.4413 21.217 52.1761 21.217C53.2573 21.217 53.9832 20.7741 54.5137 19.8528H54.5626L54.6687 21.0318H56.9878C56.9205 20.4895 56.8565 19.9168 56.8565 19.3745ZM53.1731 19.6743C52.3596 19.6743 52.2518 18.8979 52.2518 18.2596C52.2518 16.6663 53.1731 16.7724 54.4127 16.7185C54.4127 17.692 54.6417 19.6743 53.1731 19.6743Z" fill="white"/>
<path d="M62.3812 8.25781V12.95H62.3459C61.8406 12.1888 61.2124 11.9227 60.3097 11.9227C57.7968 11.9227 57.8676 14.7016 57.8676 16.5071C57.8676 18.3496 57.7783 21.2229 60.3636 21.2229C61.3185 21.2229 62.009 20.9197 62.4705 20.054H62.5059V21.0443H64.8772V8.25781H62.3812ZM61.3707 19.6751C60.468 19.6751 60.308 18.7387 60.308 16.4885C60.308 14.7016 60.2895 13.457 61.3707 13.457C62.3964 13.457 62.3812 14.6965 62.3812 16.4885C62.3812 18.7387 62.2212 19.6751 61.3724 19.6751H61.3707Z" fill="white"/>
<path d="M80.4566 11.9219C77.1623 11.9219 76.8086 14.0103 76.8086 16.4524C76.8086 19.2499 77.2347 21.217 80.4566 21.217C83.6785 21.217 84.1029 19.2431 84.1029 16.4524C84.1029 14.0103 83.7492 11.9219 80.4566 11.9219ZM80.4566 19.6221C79.5353 19.6221 79.3063 19.0393 79.3063 16.3126C79.3063 14.46 79.3939 13.5151 80.4566 13.5151C81.5193 13.5151 81.6069 14.4532 81.6069 16.3126C81.6069 19.0393 81.3762 19.6221 80.4566 19.6221Z" fill="white"/>
<path d="M113.645 19.3745V14.913C113.645 13.2844 113.237 11.9219 110.069 11.9219C109.114 11.9219 108.299 12.0903 107.733 12.5046C107.167 12.9189 106.812 13.6044 106.812 14.684H109.256C109.256 13.9749 109.325 13.3198 110.194 13.3198C111.097 13.3198 111.205 13.8688 111.205 14.6301V15.3206C108.884 15.2836 106.602 15.4082 106.602 18.3657C106.602 19.9236 107.238 21.217 108.973 21.217C110.054 21.217 110.78 20.7741 111.311 19.8528H111.348L111.45 21.0318H113.773C113.717 20.4895 113.645 19.9168 113.645 19.3745ZM109.963 19.6743C109.148 19.6743 109.042 18.8979 109.042 18.2596C109.042 16.6663 109.963 16.7724 111.203 16.7185C111.203 17.692 111.434 19.6743 109.963 19.6743Z" fill="white"/>
<path d="M124.335 12.097V13.0907H124.301C123.839 12.2233 123.151 11.9219 122.194 11.9219C119.609 11.9219 119.7 14.785 119.7 16.6377C119.7 18.4431 119.626 21.2238 122.142 21.2238C123.044 21.2238 123.658 20.9577 124.176 20.1947H124.212V24.8886H126.708V12.097H124.335ZM123.203 19.676C122.3 19.676 122.142 18.7396 122.142 16.4895C122.142 14.7025 122.122 13.4579 123.203 13.4579C124.23 13.4579 124.213 14.6975 124.213 16.4895C124.212 18.7379 124.052 19.6743 123.203 19.6743V19.676Z" fill="white"/>
<path d="M139.209 11.9219C135.918 11.9219 135.562 14.0103 135.562 16.4524C135.562 19.2499 135.989 21.217 139.209 21.217C140.378 21.217 141.265 20.897 141.848 20.3497C142.431 19.8023 142.768 19.0023 142.805 18.0288H140.278C140.278 18.7716 140.11 19.6221 139.214 19.6221C138.117 19.6221 138.082 18.0288 138.082 16.9661H142.86C142.943 14.0996 142.574 11.9219 139.209 11.9219ZM140.361 15.5682H138.077C138.077 14.8069 138.06 13.4612 139.209 13.4612C140.395 13.4612 140.361 14.6958 140.361 15.5682Z" fill="white"/>
<path d="M156.841 11.9219C153.548 11.9219 153.191 14.0103 153.191 16.4524C153.191 19.2499 153.619 21.217 156.841 21.217C158.008 21.217 158.894 20.897 159.477 20.3497C160.06 19.8023 160.4 19.0023 160.437 18.0288H157.911C157.911 18.7716 157.742 19.6221 156.85 19.6221C155.751 19.6221 155.714 18.0288 155.714 16.9661H160.498C160.577 14.0996 160.204 11.9219 156.841 11.9219ZM157.99 15.5682H155.706C155.706 14.8069 155.689 13.4612 156.841 13.4612C158.025 13.4612 157.99 14.6958 157.99 15.5682Z" fill="white"/>
<path d="M42.8759 12.9593L46.6249 8.21484H49.2102V20.9997H46.6013V12.6595L43.0965 16.6679H42.662L39.1891 12.6595V20.9997H36.5938V8.21484H39.1319L42.8759 12.9593Z" fill="white"/>
<path d="M9.47775 24.3306L1.09375 18.6346C2.08676 21.8642 4.20567 24.6302 7.06528 26.4299C9.92488 28.2295 13.3353 28.9433 16.6766 28.4415C20.0179 27.9396 23.0682 26.2555 25.273 23.6953C27.4778 21.135 28.6907 17.8686 28.6912 14.4898C28.6901 13.8135 28.6411 13.1381 28.5447 12.4688L9.47775 24.3306Z" fill="white"/>
<path d="M1.47347 9.26775C0.917996 10.6587 0.589326 12.1297 0.5 13.6248L9.40442 19.7941L27.4474 8.6968C26.894 7.41545 26.1601 6.21989 25.268 5.14648L9.43642 14.792L1.47347 9.26775Z" fill="white"/>
<path d="M9.40691 10.1642L21.9442 2.45223C18.9601 0.628035 15.4049 -0.0229269 11.9681 0.625599C8.5313 1.27412 5.45782 3.17592 3.34375 5.96213L9.40691 10.1642Z" fill="white"/>
</svg>
