<svg width="160" height="32" viewBox="0 0 160 32" fill="none" xmlns="http://www.w3.org/2000/svg">
<path d="M36.627 32H0.925049V0H21.2717C21.3888 -4.9352e-09 21.5048 0.0230632 21.6129 0.0678736C21.7211 0.112684 21.8194 0.178364 21.9022 0.261163C21.985 0.343962 22.0507 0.442259 22.0955 0.55044C22.1403 0.658622 22.1634 0.774571 22.1634 0.891666C22.1634 1.00876 22.1403 1.12471 22.0955 1.23289C22.0507 1.34107 21.985 1.43937 21.9022 1.52217C21.8194 1.60497 21.7211 1.67065 21.6129 1.71546C21.5048 1.76027 21.3888 1.78333 21.2717 1.78333H2.71372V30.2167H34.8377V17.9913C34.8441 17.7584 34.9411 17.5371 35.1081 17.3746C35.2751 17.212 35.499 17.1211 35.732 17.1211C35.9651 17.1211 36.1889 17.212 36.356 17.3746C36.523 17.5371 36.62 17.7584 36.6264 17.9913L36.627 32Z" fill="white"/>
<path d="M27.7057 26.1438V16.6944L21.0684 6.29042C20.9593 6.11227 20.9019 5.90732 20.9024 5.69842C20.904 5.45464 20.9846 5.21794 21.1322 5.02387C21.2797 4.8298 21.4862 4.68883 21.7207 4.62211C21.9552 4.55539 22.205 4.56654 22.4326 4.65386C22.6602 4.74119 22.8534 4.89999 22.9831 5.10642L28.8291 14.4544L34.6717 5.10642C34.8016 4.9003 34.9947 4.74179 35.2222 4.65467C35.4496 4.56755 35.6992 4.5565 35.9335 4.62318C36.1678 4.68987 36.3742 4.83069 36.5217 5.02454C36.6692 5.21839 36.7499 5.45483 36.7517 5.69842C36.7522 5.90712 36.6952 6.11192 36.5871 6.29042L29.9517 16.6944V26.1438C29.9446 26.4369 29.8232 26.7156 29.6133 26.9203C29.4035 27.1251 29.1219 27.2397 28.8287 27.2397C28.5356 27.2397 28.254 27.1251 28.0442 26.9203C27.8343 26.7156 27.7129 26.4369 27.7057 26.1438Z" fill="white"/>
<path d="M6.71374 27.3944C6.40853 27.3918 6.1165 27.2697 5.90037 27.0542C5.68423 26.8386 5.56122 26.547 5.55774 26.2418V5.73177C5.56122 5.42657 5.68423 5.1349 5.90037 4.91938C6.1165 4.70387 6.40853 4.5817 6.71374 4.5791H11.6077C16.4024 4.5791 18.5451 6.95243 18.5451 10.6138C18.5726 11.6366 18.2652 12.6405 17.6698 13.4726C17.0743 14.3048 16.2234 14.9197 15.2464 15.2238C17.6951 15.8344 19.5991 17.5978 19.5991 20.8858C19.5991 24.8191 17.1164 27.3951 12.6277 27.3951L6.71374 27.3944ZM7.86974 14.5458H11.5737C14.6011 14.5458 16.1991 12.9864 16.1991 10.6124C16.1991 8.1711 14.7371 6.6791 11.5737 6.6791H7.86974V14.5458ZM7.86974 25.2931H12.5944C15.6891 25.2931 17.2537 23.6318 17.2537 20.8858C17.2537 18.1064 15.4851 16.5124 12.5944 16.5124H7.86974V25.2931Z" fill="white"/>
<path d="M48.3624 14.7306C48.4085 14.6126 48.4892 14.5112 48.5939 14.4398C48.6986 14.3685 48.8224 14.3304 48.9491 14.3306C49.031 14.3298 49.1123 14.3453 49.1881 14.3762C49.264 14.4071 49.3329 14.4529 49.3909 14.5107C49.449 14.5685 49.4949 14.6373 49.526 14.7131C49.5572 14.7888 49.573 14.87 49.5724 14.9519C49.5687 15.0458 49.5503 15.1385 49.5178 15.2266L45.2271 26.5039C45.1856 26.6266 45.1067 26.7332 45.0014 26.8087C44.8962 26.8842 44.77 26.9248 44.6404 26.9248C44.5109 26.9248 44.3847 26.8842 44.2794 26.8087C44.1742 26.7332 44.0953 26.6266 44.0538 26.5039L39.7638 15.2266C39.731 15.1385 39.7123 15.0458 39.7084 14.9519C39.7079 14.87 39.7237 14.7888 39.7548 14.7131C39.786 14.6373 39.8319 14.5685 39.8899 14.5107C39.948 14.4529 40.0169 14.4071 40.0928 14.3762C40.1686 14.3453 40.2499 14.3298 40.3318 14.3306C40.4585 14.3304 40.5823 14.3685 40.687 14.4398C40.7917 14.5112 40.8724 14.6126 40.9184 14.7306L44.6404 24.5639L48.3624 14.7306Z" fill="white"/>
<path d="M53.5691 18.2222C56.5024 18.2222 57.0711 20.5435 57.0711 21.7862C57.0711 22.3195 57.0711 22.9562 56.3378 22.9562H50.9844C50.9844 24.7655 52.0298 25.9355 53.7531 25.9355C54.5565 25.9431 55.3364 25.6645 55.9531 25.1495C56.0469 25.0755 56.1637 25.0365 56.2831 25.0395C56.4246 25.0395 56.5602 25.0957 56.6602 25.1957C56.7603 25.2957 56.8164 25.4314 56.8164 25.5728C56.8162 25.6534 56.7981 25.7328 56.7635 25.8055C56.7289 25.8783 56.6787 25.9424 56.6165 25.9935C55.8298 26.689 54.8058 27.0554 53.7565 27.0168C51.3178 27.0168 49.7958 25.6835 49.7958 22.6122C49.7938 19.7962 51.1851 18.2222 53.5691 18.2222ZM53.5691 19.2822C51.9738 19.2822 51.0938 20.3055 50.9838 21.9328H55.9171C55.9158 20.6162 55.4604 19.2822 53.5691 19.2822Z" fill="white"/>
<path d="M65.9258 21.4572V26.3372C65.9258 26.4928 65.864 26.642 65.7539 26.752C65.6439 26.8621 65.4947 26.9239 65.3391 26.9239C65.1835 26.9239 65.0343 26.8621 64.9243 26.752C64.8143 26.642 64.7524 26.4928 64.7524 26.3372V21.6946C64.7524 20.2506 64.3311 19.2639 62.5524 19.2639C60.7371 19.2639 60.1138 20.3606 60.1138 21.8226V26.3372C60.1138 26.4928 60.052 26.642 59.9419 26.752C59.8319 26.8621 59.6827 26.9239 59.5271 26.9239C59.3715 26.9239 59.2223 26.8621 59.1123 26.752C59.0022 26.642 58.9404 26.4928 58.9404 26.3372V18.9166C58.9404 18.761 59.0022 18.6117 59.1123 18.5017C59.2223 18.3917 59.3715 18.3299 59.5271 18.3299C59.6827 18.3299 59.8319 18.3917 59.9419 18.5017C60.052 18.6117 60.1138 18.761 60.1138 18.9166V19.5012C60.3657 19.0865 60.7258 18.7483 61.1554 18.5229C61.5851 18.2975 62.0681 18.1934 62.5524 18.2219C65.3758 18.2219 65.9258 19.9032 65.9258 21.4572Z" fill="white"/>
<path d="M68.6391 16.5588C68.643 16.4046 68.7061 16.2579 68.8154 16.149C68.9246 16.0401 69.0716 15.9775 69.2258 15.9741C69.3807 15.975 69.5292 16.0368 69.6389 16.1462C69.7487 16.2556 69.811 16.4038 69.8124 16.5588V18.4781H71.0038C71.1492 18.4781 71.2887 18.5359 71.3915 18.6387C71.4943 18.7416 71.5521 18.881 71.5521 19.0265C71.5521 19.1719 71.4943 19.3114 71.3915 19.4142C71.2887 19.517 71.1492 19.5748 71.0038 19.5748H69.8124V24.6195C69.8124 25.4055 70.2524 25.8261 70.8791 25.8261C70.9527 25.8236 71.0261 25.8358 71.0949 25.8622C71.1636 25.8886 71.2264 25.9286 71.2794 25.9798C71.3324 26.031 71.3745 26.0923 71.4033 26.1601C71.4321 26.2279 71.4469 26.3008 71.4469 26.3745C71.4469 26.4481 71.4321 26.521 71.4033 26.5888C71.3745 26.6566 71.3324 26.718 71.2794 26.7691C71.2264 26.8203 71.1636 26.8603 71.0949 26.8867C71.0261 26.9131 70.9527 26.9254 70.8791 26.9228C70.5747 26.9416 70.2698 26.8945 69.9854 26.7844C69.701 26.6744 69.4437 26.5041 69.2312 26.2853C69.0188 26.0666 68.8561 25.8044 68.7545 25.5168C68.6529 25.2293 68.6146 24.9232 68.6424 24.6195V19.5741H67.9271C67.7817 19.5741 67.6422 19.5164 67.5394 19.4135C67.4366 19.3107 67.3788 19.1712 67.3788 19.0258C67.3788 18.8804 67.4366 18.7409 67.5394 18.6381C67.6422 18.5352 67.7817 18.4775 67.9271 18.4775H68.6424L68.6391 16.5588Z" fill="white"/>
<path d="M74.3404 18.9168V23.6875C74.3404 24.8755 74.7251 25.8988 76.5771 25.8988C78.4291 25.8988 78.8138 24.8755 78.8138 23.6875V18.9168C78.815 18.8386 78.8316 18.7615 78.8627 18.6897C78.8938 18.618 78.9388 18.5531 78.995 18.4988C79.0513 18.4445 79.1177 18.4018 79.1904 18.3732C79.2632 18.3446 79.3409 18.3306 79.4191 18.3321C79.4949 18.3329 79.5697 18.3487 79.6394 18.3786C79.709 18.4084 79.7721 18.4518 79.8249 18.5061C79.8777 18.5605 79.9192 18.6248 79.9471 18.6953C79.9749 18.7657 79.9885 18.841 79.9871 18.9168V23.6875C79.9871 25.4208 79.4191 27.0141 76.5771 27.0141C73.7538 27.0141 73.1671 25.4241 73.1671 23.6875V18.9168C73.1662 18.8396 73.1808 18.763 73.21 18.6915C73.2391 18.6201 73.2824 18.5552 73.337 18.5007C73.3917 18.4462 73.4568 18.4032 73.5283 18.3742C73.5999 18.3453 73.6765 18.331 73.7537 18.3321C73.9087 18.333 74.0572 18.3948 74.1669 18.5042C74.2767 18.6136 74.339 18.7618 74.3404 18.9168Z" fill="white"/>
<path d="M83.4158 19.7204C83.649 19.2524 84.0154 18.8639 84.4689 18.6038C84.9224 18.3436 85.4428 18.2234 85.9644 18.2584C86.1147 18.2584 86.2588 18.3181 86.3651 18.4243C86.4714 18.5306 86.5311 18.6747 86.5311 18.825C86.5311 18.9753 86.4714 19.1194 86.3651 19.2257C86.2588 19.332 86.1147 19.3917 85.9644 19.3917C84.2777 19.3917 83.4158 20.5617 83.4158 22.243V26.337C83.4158 26.4926 83.354 26.6418 83.2439 26.7519C83.1339 26.8619 82.9847 26.9237 82.8291 26.9237C82.6735 26.9237 82.5243 26.8619 82.4143 26.7519C82.3042 26.6418 82.2424 26.4926 82.2424 26.337V18.9164C82.2424 18.7608 82.3042 18.6115 82.4143 18.5015C82.5243 18.3915 82.6735 18.3297 82.8291 18.3297C82.9847 18.3297 83.1339 18.3915 83.2439 18.5015C83.354 18.6115 83.4158 18.7608 83.4158 18.9164V19.7204Z" fill="white"/>
<path d="M91.0064 18.2222C93.9398 18.2222 94.5084 20.5435 94.5084 21.7862C94.5084 22.3195 94.5084 22.9562 93.7751 22.9562H88.4211C88.4211 24.7655 89.4664 25.9355 91.1898 25.9355C91.9932 25.9431 92.7731 25.6645 93.3898 25.1495C93.4845 25.0748 93.6025 25.0359 93.7231 25.0395C93.7932 25.0395 93.8625 25.0533 93.9272 25.0801C93.9919 25.1069 94.0507 25.1462 94.1002 25.1957C94.1498 25.2452 94.189 25.304 94.2159 25.3687C94.2427 25.4334 94.2564 25.5028 94.2564 25.5728C94.2561 25.6534 94.2381 25.7328 94.2035 25.8055C94.1689 25.8783 94.1187 25.9424 94.0564 25.9935C93.2698 26.689 92.2458 27.0554 91.1964 27.0168C88.7578 27.0168 87.2364 25.6835 87.2364 22.6122C87.2264 19.7962 88.6224 18.2222 91.0064 18.2222ZM91.0064 19.2822C89.4111 19.2822 88.5311 20.3055 88.4211 21.9328H93.3544C93.3531 20.6162 92.8931 19.2822 91.0064 19.2822Z" fill="white"/>
<path d="M102.317 26.3C102.317 26.4653 102.251 26.6238 102.135 26.7407C102.018 26.8576 101.859 26.9233 101.694 26.9233C101.528 26.9233 101.37 26.8576 101.253 26.7407C101.136 26.6238 101.07 26.4653 101.07 26.3V15.096C101.07 15.0141 101.086 14.9329 101.117 14.8571C101.148 14.7813 101.194 14.7125 101.252 14.6547C101.31 14.5969 101.379 14.5512 101.455 14.5203C101.531 14.4894 101.612 14.4738 101.694 14.4746H105.342C107.304 14.4746 108.844 15.608 108.844 18.0386C108.844 20.4326 107.341 21.6206 105.342 21.6206H102.317V26.3ZM102.317 20.488H105.159C105.806 20.488 106.427 20.2309 106.884 19.7733C107.342 19.3157 107.599 18.6951 107.599 18.048C107.599 17.4008 107.342 16.7802 106.884 16.3226C106.427 15.865 105.806 15.608 105.159 15.608H102.317V20.488Z" fill="white"/>
<path d="M111.392 20.2506C111.339 20.3276 111.267 20.3909 111.185 20.4354C111.102 20.4798 111.01 20.5042 110.916 20.5066C110.774 20.5066 110.639 20.4504 110.539 20.3504C110.439 20.2504 110.382 20.1147 110.382 19.9733C110.382 19.8629 110.414 19.7549 110.474 19.6626C110.813 19.1792 111.272 18.792 111.806 18.5389C112.339 18.2858 112.929 18.1755 113.518 18.2186C115.644 18.2186 116.818 19.4613 116.818 21.3259V26.3519C116.813 26.4993 116.751 26.6389 116.645 26.7414C116.539 26.8439 116.397 26.9011 116.249 26.9011C116.102 26.9011 115.96 26.8439 115.854 26.7414C115.748 26.6389 115.686 26.4993 115.681 26.3519V25.6939C115.4 26.1258 115.009 26.4753 114.548 26.7065C114.087 26.9377 113.574 27.0424 113.059 27.0099C111.116 27.0099 109.887 26.0766 109.887 24.3959C109.887 22.7879 111.116 21.8193 113.096 21.8193H115.681V21.3293C115.681 20.0866 114.856 19.3186 113.518 19.3186C113.115 19.2939 112.712 19.3656 112.342 19.5277C111.973 19.6898 111.647 19.9376 111.392 20.2506ZM115.682 23.6133V22.8453H113.097C111.906 22.8453 111.08 23.3386 111.08 24.3986C111.08 25.3493 111.74 25.9519 113.17 25.9519C113.492 25.9774 113.816 25.9358 114.12 25.8297C114.425 25.7235 114.704 25.5552 114.941 25.3353C115.177 25.1155 115.365 24.849 115.493 24.5526C115.621 24.2563 115.685 23.9366 115.683 23.6139L115.682 23.6133Z" fill="white"/>
<path d="M120.248 19.7204C120.481 19.2524 120.847 18.8639 121.301 18.6038C121.754 18.3436 122.275 18.2234 122.796 18.2584C122.947 18.2584 123.091 18.3181 123.197 18.4243C123.303 18.5306 123.363 18.6747 123.363 18.825C123.363 18.9753 123.303 19.1194 123.197 19.2257C123.091 19.332 122.947 19.3917 122.796 19.3917C121.11 19.3917 120.248 20.5617 120.248 22.243V26.337C120.248 26.4926 120.186 26.6418 120.076 26.7519C119.966 26.8619 119.817 26.9237 119.661 26.9237C119.506 26.9237 119.356 26.8619 119.246 26.7519C119.136 26.6418 119.074 26.4926 119.074 26.337V18.9164C119.074 18.7608 119.136 18.6115 119.246 18.5015C119.356 18.3915 119.506 18.3297 119.661 18.3297C119.817 18.3297 119.966 18.3915 120.076 18.5015C120.186 18.6115 120.248 18.7608 120.248 18.9164V19.7204Z" fill="white"/>
<path d="M125.62 16.5588C125.624 16.4046 125.687 16.2579 125.796 16.149C125.905 16.0401 126.052 15.9775 126.206 15.9741C126.361 15.975 126.51 16.0368 126.62 16.1462C126.729 16.2556 126.792 16.4038 126.793 16.5588V18.4781H127.982C128.127 18.4781 128.267 18.5359 128.369 18.6387C128.472 18.7416 128.53 18.881 128.53 19.0265C128.53 19.1719 128.472 19.3114 128.369 19.4142C128.267 19.517 128.127 19.5748 127.982 19.5748H126.79V24.6195C126.79 25.4055 127.23 25.8261 127.856 25.8261C127.93 25.8236 128.003 25.8358 128.072 25.8622C128.141 25.8886 128.204 25.9286 128.257 25.9798C128.31 26.031 128.352 26.0923 128.381 26.1601C128.409 26.2279 128.424 26.3008 128.424 26.3745C128.424 26.4481 128.409 26.521 128.381 26.5888C128.352 26.6566 128.31 26.718 128.257 26.7691C128.204 26.8203 128.141 26.8603 128.072 26.8867C128.003 26.9131 127.93 26.9254 127.856 26.9228C127.552 26.9418 127.247 26.8946 126.963 26.7847C126.678 26.6747 126.421 26.5044 126.208 26.2856C125.996 26.0668 125.833 25.8046 125.732 25.517C125.63 25.2294 125.592 24.9232 125.62 24.6195V19.5741H124.904C124.759 19.5741 124.62 19.5164 124.517 19.4135C124.414 19.3107 124.356 19.1712 124.356 19.0258C124.356 18.8804 124.414 18.7409 124.517 18.6381C124.62 18.5352 124.759 18.4775 124.904 18.4775H125.62V16.5588Z" fill="white"/>
<path d="M137.316 21.4572V26.3372C137.316 26.4928 137.255 26.642 137.145 26.752C137.035 26.8621 136.885 26.9239 136.73 26.9239C136.574 26.9239 136.425 26.8621 136.315 26.752C136.205 26.642 136.143 26.4928 136.143 26.3372V21.6946C136.143 20.2506 135.722 19.2639 133.943 19.2639C132.128 19.2639 131.504 20.3606 131.504 21.8226V26.3372C131.504 26.4928 131.443 26.642 131.333 26.752C131.223 26.8621 131.073 26.9239 130.918 26.9239C130.762 26.9239 130.613 26.8621 130.503 26.752C130.393 26.642 130.331 26.4928 130.331 26.3372V18.9166C130.331 18.761 130.393 18.6117 130.503 18.5017C130.613 18.3917 130.762 18.3299 130.918 18.3299C131.073 18.3299 131.223 18.3917 131.333 18.5017C131.443 18.6117 131.504 18.761 131.504 18.9166V19.5012C131.756 19.0865 132.116 18.7483 132.546 18.5229C132.976 18.2975 133.459 18.1934 133.943 18.2219C136.766 18.2219 137.316 19.9032 137.316 21.4572Z" fill="white"/>
<path d="M142.798 18.2222C145.732 18.2222 146.3 20.5435 146.3 21.7862C146.3 22.3195 146.3 22.9562 145.567 22.9562H140.214C140.214 24.7655 141.26 25.9355 142.983 25.9355C143.786 25.943 144.566 25.6644 145.183 25.1495C145.277 25.0755 145.394 25.0365 145.513 25.0395C145.655 25.0395 145.79 25.0957 145.89 25.1957C145.99 25.2957 146.046 25.4314 146.046 25.5728C146.046 25.6533 146.028 25.7328 145.993 25.8055C145.959 25.8782 145.909 25.9424 145.846 25.9935C145.06 26.689 144.036 27.0554 142.986 27.0168C140.548 27.0168 139.026 25.6835 139.026 22.6122C139.021 19.7962 140.414 18.2222 142.798 18.2222ZM142.798 19.2822C141.203 19.2822 140.323 20.3055 140.213 21.9328H145.146C145.148 20.6162 144.686 19.2822 142.798 19.2822Z" fill="white"/>
<path d="M149.343 19.7204C149.576 19.2524 149.943 18.8639 150.396 18.6038C150.85 18.3436 151.37 18.2234 151.892 18.2584C152.042 18.2584 152.186 18.3181 152.292 18.4243C152.399 18.5306 152.458 18.6747 152.458 18.825C152.458 18.9753 152.399 19.1194 152.292 19.2257C152.186 19.332 152.042 19.3917 151.892 19.3917C150.205 19.3917 149.343 20.5617 149.343 22.243V26.337C149.343 26.4926 149.281 26.6418 149.171 26.7519C149.061 26.8619 148.912 26.9237 148.756 26.9237C148.601 26.9237 148.452 26.8619 148.342 26.7519C148.232 26.6418 148.17 26.4926 148.17 26.337V18.9164C148.17 18.7608 148.232 18.6115 148.342 18.5015C148.452 18.3915 148.601 18.3297 148.756 18.3297C148.912 18.3297 149.061 18.3915 149.171 18.5015C149.281 18.6115 149.343 18.7608 149.343 18.9164V19.7204Z" fill="white"/>
<path d="M154.77 20.4521C154.77 22.3714 159.592 21.6587 159.592 24.5854C159.592 26.2487 158.217 26.9981 156.475 26.9981C155.889 27.0136 155.307 26.9043 154.767 26.6774C154.227 26.4505 153.741 26.1112 153.342 25.6821C153.26 25.5848 153.215 25.4619 153.214 25.3347C153.214 25.1933 153.27 25.0576 153.37 24.9576C153.47 24.8576 153.606 24.8014 153.747 24.8014C153.823 24.8034 153.897 24.8207 153.966 24.8521C154.034 24.8834 154.096 24.9283 154.147 24.9841C154.452 25.286 154.817 25.5214 155.218 25.6755C155.619 25.8296 156.047 25.899 156.476 25.8794C157.521 25.8794 158.419 25.5321 158.419 24.5821C158.419 22.6994 153.597 23.4487 153.597 20.4487C153.597 18.9314 154.844 18.2367 156.402 18.2367C156.926 18.2 157.451 18.2867 157.935 18.4899C158.419 18.6931 158.849 19.0072 159.189 19.4067C159.27 19.5044 159.315 19.6271 159.317 19.7541C159.317 19.8955 159.261 20.0312 159.161 20.1312C159.061 20.2312 158.925 20.2874 158.784 20.2874C158.712 20.2881 158.64 20.2738 158.574 20.2454C158.508 20.2171 158.448 20.1753 158.399 20.1227C158.139 19.8605 157.826 19.6564 157.482 19.524C157.137 19.3916 156.768 19.3339 156.399 19.3547C155.577 19.3547 154.77 19.6107 154.77 20.4521Z" fill="white"/>
</svg>
