<svg width="142" height="32" viewBox="0 0 142 32" fill="none" xmlns="http://www.w3.org/2000/svg">
<path d="M0.813481 18.7556L2.59205 18.4756V2.02613L0.598389 1.76741L0.705935 0H13.1244L12.8231 4.97755L10.3445 4.91262L10.1943 1.78871H6.35108V9.18504H8.02515L8.41272 7.48256L10.1527 7.52517V12.6326H8.43403L8.02413 10.8875H6.35108V18.7343H10.2156L10.5819 15.3304L13.1894 15.4166L13.3832 20.6093H0.728255L0.813481 18.7556ZM14.5205 20.6093L14.5855 19.0793L15.9815 18.7992V8.42815L14.3491 8.27698V6.72568L18.4328 6.14432L18.7402 7.02803V7.60939C19.7314 6.57451 20.9165 5.97185 22.4251 5.97185C24.6451 5.97185 26.2826 7.30805 26.2826 9.98047V18.8003L27.7639 19.0803L27.6777 20.6103H22.8614V10.7231C22.8614 9.3007 22.3389 8.50323 21.0666 8.50323C20.6354 8.50323 20.328 8.58947 19.9841 8.69702C19.768 8.8695 19.5742 9.12822 19.4017 9.36563V18.7992L20.8667 19.0793L20.7592 20.6093H14.5205ZM92.4335 20.6093L92.4984 19.0793L93.8945 18.7992V8.42815L92.262 8.27698V6.72568L96.3457 6.14432L96.6521 7.02803V7.60939C97.6434 6.57451 98.8284 5.97185 100.337 5.97185C102.557 5.97185 104.195 7.30805 104.195 9.98047V18.8003L105.676 19.0803L105.59 20.6103H100.773V10.7231C100.773 9.3007 100.25 8.50323 98.9786 8.50323C98.5484 8.50323 98.241 8.58947 97.896 8.69702C97.6809 8.8695 97.4861 9.12822 97.3147 9.36563V18.7992L98.7797 19.0793L98.6722 20.6093H92.4335ZM35.4636 20.3231C34.9035 20.5606 33.891 20.8183 32.5761 20.8183C30.8523 20.8183 29.2472 20.0431 29.2472 17.5209V8.42105L27.6097 8.16233L27.6746 6.35231L29.5283 6.26608L30.3257 3.50742L32.6856 3.39886V6.3513H35.2505L35.073 8.16132L32.7313 8.42105V17.4996C32.7313 18.2534 33.1412 18.7495 33.9163 18.7495H35.3114L35.4636 20.3231ZM131.987 20.6093L132.052 19.1219L133.367 18.8205V8.42917L131.816 8.278V6.72568L136.033 6.14432L136.313 7.15688V7.48053C137.413 6.66176 138.921 6.12302 140.71 6.12302L141.335 6.66176L140.904 10.5628L138.577 10.4766L138.34 8.38656C137.802 8.4728 137.284 8.62397 136.853 8.9253V18.8216L138.319 19.1229L138.212 20.6103H131.987V20.6093ZM71.2419 20.6093L71.3068 19.1219L72.6217 18.8205V8.42917L71.0694 8.278V6.72568L75.287 6.14432L75.5671 7.15688V7.48053C76.6669 6.66176 78.1745 6.12302 79.9643 6.12302L80.5892 6.66176L80.1581 10.5628L77.8306 10.4766L77.5942 8.38656C77.0555 8.4728 76.538 8.62397 76.1068 8.9253V18.8216L77.5729 19.1229L77.4653 20.6103H71.2419V20.6093ZM36.4913 20.6093L36.5563 19.1219L37.8712 18.8205V8.42917L36.3189 8.278V6.72568L40.5375 6.14432L40.8175 7.15688V7.48053C41.9163 6.66176 43.425 6.12302 45.2137 6.12302L45.8387 6.66176L45.4075 10.5628L43.0801 10.4766L42.8426 8.38656C42.3039 8.4728 41.7865 8.62397 41.3553 8.9253V18.8216L42.8213 19.1229L42.7138 20.6103H36.4913V20.6093ZM49.8615 14.2894C49.8615 16.767 50.9329 18.6856 53.0808 18.6856C54.1796 18.6856 55.0633 18.4482 56.0982 17.9744L56.6806 19.3319C55.6244 20.172 54.0883 20.8183 52.1484 20.8183C48.3934 20.8183 46.2243 17.5645 46.2243 13.3834C46.2243 9.82727 47.7867 5.93633 52.1078 5.93633C55.8608 5.93633 57.2853 9.41839 57.2853 13.2971L56.919 14.2235L49.8615 14.2894ZM49.7966 12.6295L54.134 12.4358C54.0477 10.711 53.6906 7.96246 51.9932 7.96246C51.5904 7.96246 51.3002 8.02739 50.7828 8.30742C50.0848 9.49245 49.7875 11.6342 49.7966 12.6295ZM109.787 14.2894C109.787 16.767 110.858 18.6856 113.006 18.6856C114.106 18.6856 114.989 18.4482 116.024 17.9744L116.605 19.3319C115.55 20.172 114.013 20.8183 112.073 20.8183C108.318 20.8183 106.149 17.5645 106.149 13.3834C106.149 9.82727 107.71 5.93633 112.032 5.93633C115.785 5.93633 117.21 9.41839 117.21 13.2971L116.843 14.2235L109.787 14.2894ZM109.722 12.6295L114.059 12.4358C113.973 10.711 113.616 7.96246 111.919 7.96246C111.516 7.96246 111.226 8.02739 110.708 8.30742C110.01 9.49245 109.714 11.6342 109.722 12.6295ZM84.6111 14.2894C84.6111 16.767 85.6825 18.6856 87.8303 18.6856C88.9301 18.6856 89.8128 18.4482 90.8477 17.9744L91.4291 19.3319C90.3739 20.172 88.8368 20.8183 86.8969 20.8183C83.1419 20.8183 80.9728 17.5645 80.9728 13.3834C80.9728 9.82727 82.5342 5.93633 86.8553 5.93633C90.6083 5.93633 92.0328 9.41839 92.0328 13.2971L91.6665 14.2235L84.6111 14.2894ZM84.5461 12.6295L88.8835 12.4358C88.7972 10.711 88.4401 7.96246 86.7427 7.96246C86.3399 7.96246 86.0497 8.02739 85.5323 8.30742C84.8343 9.49245 84.538 11.6342 84.5461 12.6295ZM126.959 20.6093L126.593 19.3806C125.644 20.2856 124.718 20.8244 123.274 20.8244C121.054 20.8244 119.066 19.7042 119.066 16.6432V8.05783L117.434 7.90666V6.54914L122.12 6.0104L122.487 7.23906V16.2131C122.487 17.7867 123.121 18.6055 124.394 18.6055C124.756 18.6055 125.214 18.5618 125.623 18.3904C125.859 18.1529 126.075 17.8729 126.269 17.5929V8.05783L124.588 7.90666V6.54914L129.323 6.0104L129.689 7.23906V18.7992L131.149 19.0793L130.977 20.6093H126.959ZM64.3042 18.7556C63.5503 18.7556 62.9679 18.6257 62.4941 18.368V9.252C62.6879 8.95067 62.9253 8.67064 63.1627 8.41192C63.5767 8.26551 64.0132 8.19272 64.4523 8.19683C66.3901 8.19683 66.7107 10.1601 66.7107 13.6736C66.7107 17.0572 66.2075 17.9886 66.0726 18.3691C65.5541 18.6268 64.9941 18.7556 64.3042 18.7556ZM70.0842 13.0364C70.0842 8.68484 68.7917 5.95054 65.5846 5.95054C63.4519 5.95054 62.4383 7.18123 62.0203 7.7007V7.22689L61.6541 5.99822L57.4415 6.5806V8.06595L59.074 8.28104V25.8587L57.6941 26.1387L57.6292 27.6048H63.8517L63.9592 26.1387L62.4941 25.8587V20.2846C63.0765 20.6082 63.9105 20.8233 64.8165 20.8233C70.0366 20.8254 70.0842 15.4856 70.0842 13.0364ZM140.45 18.5923C141.159 18.5923 141.611 19.0123 141.611 19.6028C141.611 20.1984 141.147 20.6133 140.45 20.6133C139.764 20.6133 139.287 20.1984 139.287 19.6028C139.287 19.0062 139.758 18.5923 140.45 18.5923ZM140.45 20.2968C140.933 20.2968 141.248 20.0117 141.248 19.6018C141.248 19.1919 140.933 18.9068 140.45 18.9068C139.973 18.9068 139.656 19.1868 139.656 19.6018C139.656 20.0117 139.973 20.2968 140.45 20.2968ZM139.943 20.0583L139.95 19.9183L140.069 19.8919V19.27L139.932 19.2548L139.938 19.1148H140.492C140.731 19.1148 140.952 19.1919 140.946 19.3999C140.94 19.545 140.857 19.6282 140.743 19.6748C140.796 19.7629 140.865 19.8404 140.946 19.9031L141.029 19.9183L141.017 20.0583H140.737C140.623 19.9635 140.532 19.8451 140.469 19.7113H140.38V19.893L140.498 19.9193L140.487 20.0594H139.943V20.0583ZM140.378 19.2862V19.5561H140.479C140.616 19.5561 140.647 19.5044 140.647 19.4263C140.647 19.3075 140.557 19.2862 140.444 19.2862H140.378ZM78.2415 30.5735H78.2516L80.6684 24.5996H81.7885V31.8164H81.0539V25.5472H81.0336L78.4241 31.8164H78.0366L75.427 25.5472H75.4068V31.8164H74.6732V24.5996H75.7943L78.2415 30.5735ZM84.6932 31.8164H83.9587V24.5996H84.6932V31.8164ZM86.8645 24.5996H89.2599C89.7073 24.5996 90.1588 24.6747 90.6103 24.8238C91.0618 24.973 91.4707 25.1992 91.8339 25.5016C92.1961 25.8049 92.4903 26.1814 92.7156 26.6328C92.9398 27.0854 93.0514 27.6109 93.0514 28.2085C93.0514 28.8142 92.9398 29.3398 92.7156 29.7892C92.5027 30.2213 92.2025 30.6044 91.8339 30.9144C91.4707 31.2178 91.0618 31.443 90.6103 31.5932C90.1588 31.7433 89.7073 31.8174 89.2599 31.8174H86.8645V24.5996ZM87.598 31.165H89.056C89.5998 31.165 90.0736 31.0798 90.4774 30.9093C90.8812 30.7399 91.217 30.5167 91.4818 30.2417C91.7436 29.9722 91.9464 29.6513 92.0774 29.2992C92.3437 28.5964 92.3437 27.8206 92.0774 27.1178C91.9459 26.7657 91.7432 26.4444 91.4818 26.1743C91.196 25.8859 90.8542 25.659 90.4774 25.5077C90.0736 25.3372 89.5998 25.252 89.056 25.252H87.598V31.165ZM94.836 24.5996H97.2315C97.6789 24.5996 98.1304 24.6747 98.5819 24.8238C99.0334 24.973 99.4423 25.1992 99.8055 25.5016C100.168 25.8049 100.462 26.1814 100.687 26.6328C100.911 27.0854 101.023 27.6109 101.023 28.2085C101.023 28.8142 100.911 29.3398 100.687 29.7892C100.474 30.2213 100.174 30.6044 99.8055 30.9144C99.4423 31.2178 99.0334 31.443 98.5819 31.5932C98.1304 31.7433 97.6789 31.8174 97.2315 31.8174H94.836V24.5996ZM95.5706 31.165H97.0286C97.5724 31.165 98.0462 31.0798 98.45 30.9093C98.8538 30.7399 99.1896 30.5167 99.4544 30.2417C99.7162 29.9722 99.919 29.6513 100.05 29.2992C100.316 28.5964 100.316 27.8206 100.05 27.1178C99.9185 26.7657 99.7158 26.4444 99.4544 26.1743C99.1686 25.8859 98.8268 25.659 98.45 25.5077C98.0462 25.3372 97.5724 25.252 97.0286 25.252H95.5706V31.165ZM103.541 31.165H106.905V31.8174H102.807V24.6006H103.541V31.165ZM108.995 31.165H112.858V31.8174H108.261V24.6006H112.736V25.253H108.995V27.7296H112.491V28.383H108.995V31.165ZM118.087 31.165H121.951V31.8174H117.354V24.6006H121.829V25.253H118.087V27.7296H121.584V28.383H118.087V31.165ZM123.592 31.8164H122.787L125.906 24.5996H126.619L129.718 31.8164H128.903L128.107 29.9201H124.377L123.592 31.8164ZM124.653 29.2474H127.833L126.244 25.4153L124.653 29.2474ZM134.53 25.7623C134.373 25.5442 134.173 25.3697 133.928 25.2368C133.683 25.1039 133.388 25.0379 133.041 25.0379C132.864 25.0379 132.684 25.0653 132.501 25.1201C132.321 25.1728 132.152 25.2573 132.001 25.3697C131.853 25.4813 131.731 25.6223 131.64 25.7928C131.549 25.9622 131.502 26.1631 131.502 26.3944C131.502 26.6257 131.547 26.8155 131.635 26.9646C131.723 27.1138 131.839 27.2406 131.986 27.3471C132.132 27.4526 132.298 27.5379 132.483 27.6068C132.671 27.6748 132.865 27.7428 133.068 27.8108C133.318 27.8919 133.571 27.9802 133.826 28.0756C134.079 28.171 134.308 28.2947 134.511 28.4479C134.714 28.6001 134.881 28.7949 135.01 29.0283C135.138 29.2627 135.202 29.5599 135.202 29.9201C135.202 30.2803 135.134 30.5918 134.996 30.8535C134.858 31.1153 134.68 31.3314 134.462 31.5008C134.237 31.673 133.982 31.801 133.71 31.8783C133.428 31.9594 133.144 32 132.859 32C132.64 32 132.423 31.9787 132.205 31.9341C131.992 31.8915 131.783 31.8252 131.584 31.7362C131.188 31.5577 130.844 31.2803 130.585 30.9306L131.217 30.4619C131.373 30.7196 131.592 30.9357 131.874 31.1092C132.156 31.2827 132.487 31.3689 132.868 31.3689C133.051 31.3689 133.238 31.3405 133.429 31.2827C133.62 31.2249 133.79 31.1356 133.943 31.0169C134.096 30.8982 134.222 30.7521 134.321 30.5786C134.419 30.4051 134.469 30.2032 134.469 29.9718C134.469 29.7202 134.419 29.5112 134.321 29.3448C134.222 29.1784 134.091 29.0384 133.928 28.9268C133.765 28.8152 133.578 28.7219 133.367 28.6468C133.147 28.57 132.926 28.4953 132.704 28.4226C132.466 28.3481 132.232 28.2632 132.001 28.1679C131.776 28.0766 131.567 27.951 131.38 27.7956C131.194 27.6398 131.043 27.447 130.936 27.2294C130.824 27.0052 130.769 26.7302 130.769 26.4046C130.769 26.0576 130.838 25.7583 130.978 25.5077C131.117 25.2561 131.298 25.0491 131.522 24.8857C131.747 24.7224 131.995 24.6037 132.266 24.5286C132.537 24.4535 132.806 24.417 133.072 24.417C133.561 24.417 133.979 24.5032 134.325 24.6767C134.671 24.8502 134.933 25.0562 135.109 25.2936L134.53 25.7623ZM139.168 31.8164H138.434V25.251H136.017V24.5986H141.583V25.251H139.167V31.8164H139.168Z" fill="#5E6473"/>
</svg>
