<svg width="119" height="30" viewBox="0 0 119 30" fill="none" xmlns="http://www.w3.org/2000/svg">
<path d="M67.5247 9.78506C67.5247 6.34802 67.584 3.14802 67.7617 0.185059L58.6951 1.90358V2.73321L59.584 2.85173C60.2358 2.91098 60.6506 3.14802 60.8877 3.50358C61.1247 3.91839 61.3025 4.51098 61.421 5.39987C61.5395 7.11839 61.658 11.0295 61.5988 17.1925C61.5988 23.2962 61.5395 27.148 61.421 28.6295C64.6803 29.3406 67.2284 29.6369 69.1247 29.6369C72.6803 29.6369 75.4655 28.6295 77.4803 26.5554C79.4951 24.5406 80.5618 21.6962 80.5618 18.1999C80.5618 15.4147 79.7914 13.1036 78.2506 11.2665C76.7099 9.4295 74.7543 8.54061 72.4432 8.54061C70.9025 8.54061 69.3025 8.95543 67.5247 9.78506ZM67.7025 28.0369C67.584 26.1406 67.4654 20.4517 67.4654 11.148C67.9988 10.9702 68.7099 10.8517 69.5988 10.8517C71.021 10.8517 72.1469 11.5628 72.9766 13.0443C73.8062 14.5258 74.221 16.3036 74.221 18.5554C74.221 21.3406 73.7469 23.5925 72.7988 25.4888C71.8506 27.3258 70.6655 28.2739 69.184 28.2739C68.7099 28.1554 68.2358 28.0962 67.7025 28.0369ZM24.6803 0.777651H0.976562V1.96284L2.22101 2.08135C3.16916 2.25913 3.82101 2.61469 4.23582 3.14802C4.65064 3.74061 4.88767 4.68876 4.94693 5.99247C5.42101 12.3925 5.42101 18.3777 4.94693 23.8888C4.82841 25.1925 4.59138 26.1406 4.23582 26.7332C3.82101 27.3258 3.16916 27.6814 2.22101 27.7999L0.976562 27.9777V29.1628H16.2655V27.9777L14.6655 27.8591C13.7173 27.7406 13.0655 27.3258 12.6506 26.7925C12.2358 26.1999 11.9988 25.2517 11.9395 23.948C11.7617 21.5777 11.6432 18.8517 11.6432 15.8295L14.8432 15.8888C16.5617 15.948 17.7469 17.2517 18.3395 19.8591H19.5247V10.1999H18.3395C17.7469 12.748 16.621 14.0517 14.8432 14.111L11.6432 14.1702C11.6432 8.83691 11.7617 5.04432 11.9395 2.73321H16.621C19.9395 2.73321 22.1914 4.86654 23.4951 9.13321L24.9173 8.71839L24.6803 0.777651ZM21.8951 19.0295C21.8951 22.111 22.784 24.6591 24.5025 26.6739C26.221 28.6888 28.7692 29.6369 31.9692 29.6369C35.1692 29.6369 37.7766 28.6295 39.6729 26.5554C41.5692 24.5406 42.458 21.9925 42.458 18.911C42.458 15.8295 41.5692 13.2814 39.8506 11.2665C38.1321 9.25173 35.584 8.30358 32.384 8.30358C29.184 8.30358 26.5766 9.31098 24.6803 11.3851C22.784 13.3999 21.8951 15.948 21.8951 19.0295ZM35.1099 12.2739C35.821 13.9925 36.1173 16.2443 36.1173 18.9702C36.1173 25.2517 34.8136 28.3332 32.2655 28.3332C30.9617 28.3332 29.9543 27.4443 29.2432 25.6665C28.5321 23.8888 28.2358 21.6369 28.2358 18.9702C28.2358 12.748 29.5395 9.66654 32.0877 9.66654C33.3914 9.60728 34.3988 10.4962 35.1099 12.2739ZM85.184 26.6739C87.1395 28.6295 89.6284 29.6369 92.5914 29.6369C94.4284 29.6369 96.0284 29.2814 97.4506 28.511C98.8729 27.7999 99.9988 26.911 100.769 25.8443L100.177 25.1332C98.8729 26.1406 97.3914 26.6147 95.6729 26.6147C93.3025 26.6147 91.4655 25.8443 90.221 24.2443C88.9173 22.6443 88.3247 20.6295 88.4432 18.0221H101.125C101.125 15.1777 100.414 12.8665 98.9321 11.0295C97.4506 9.25173 95.3766 8.36284 92.7099 8.36284C89.3914 8.36284 86.8432 9.4295 85.0062 11.5036C83.1692 13.5777 82.2803 16.1258 82.2803 19.148C82.2803 22.2295 83.2284 24.7184 85.184 26.6739ZM89.5692 11.7999C90.221 10.3777 91.0506 9.66654 92.1766 9.66654C93.9543 9.66654 94.8432 11.9184 94.8432 16.4814L88.5618 16.5999C88.621 14.8221 88.9173 13.2221 89.5692 11.7999ZM117.065 9.4295C115.465 8.71839 113.451 8.30358 111.021 8.30358C108.532 8.30358 106.577 8.95543 105.095 10.1999C103.614 11.4443 102.843 12.9851 102.843 14.8221C102.843 16.4221 103.317 17.6665 104.206 18.5554C105.095 19.4443 106.517 20.2147 108.354 20.8665C110.014 21.4591 111.199 22.0517 111.791 22.5851C112.384 23.1777 112.74 23.8295 112.74 24.7184C112.74 25.548 112.443 26.3184 111.791 26.911C111.199 27.5628 110.369 27.8591 109.302 27.8591C106.695 27.8591 104.74 25.9628 103.377 22.1702L102.369 22.4665L102.606 28.3925C104.74 29.2221 107.11 29.6369 109.717 29.6369C112.443 29.6369 114.517 29.0443 116.058 27.7999C117.599 26.6147 118.369 24.8962 118.369 22.7628C118.369 21.3406 118.014 20.1554 117.243 19.2665C116.473 18.3777 115.228 17.6073 113.451 16.8962C111.495 16.1851 110.132 15.5332 109.421 14.9406C108.71 14.348 108.354 13.6369 108.354 12.748C108.354 11.8591 108.591 11.148 109.125 10.5554C109.658 9.96284 110.31 9.7258 111.14 9.7258C113.51 9.7258 115.228 11.4443 116.295 14.8221L117.302 14.5258L117.065 9.4295ZM60.058 8.89617C59.2284 8.48136 58.3395 8.30358 57.3321 8.30358C56.3247 8.30358 55.3173 8.71839 54.1914 9.54802C53.0655 10.3777 52.2358 11.5036 51.584 13.0443L51.6432 8.30358L42.6358 10.0814V10.911L43.5247 10.9702C44.6506 11.0888 45.3025 11.9777 45.421 13.5777C45.7766 17.2517 45.7766 21.1628 45.421 25.311C45.3025 26.911 44.6506 27.7406 43.5247 27.9184L42.6358 28.0369V29.1628H55.1988V28.0369L53.5988 27.9184C52.4729 27.7999 51.821 26.911 51.7025 25.311C51.3469 21.8739 51.2877 18.1999 51.584 14.4073C51.9395 13.8147 52.7099 13.4591 53.8951 13.3406C55.0803 13.2221 56.4432 13.5777 57.8655 14.4073L60.058 8.89617Z" fill="#5E6473"/>
</svg>
