<svg width="123" height="32" viewBox="0 0 123 32" fill="none" xmlns="http://www.w3.org/2000/svg">
<path d="M35.7976 3.64072V0H49.7217V3.64072H44.7397V14.6906H40.7157V3.64072H35.7976ZM56.1728 3.96008C56.7476 3.70459 57.3864 3.51297 58.1528 3.51297C58.8554 3.51297 59.3664 3.64072 59.8774 3.83234C60.3884 4.02395 60.7077 4.34331 61.0271 4.66267C61.2826 5.04591 61.5381 5.49301 61.6019 6.06786C61.7297 6.57884 61.7936 7.21757 61.7936 7.85629V14.6906H57.7696V8.68663C57.7696 8.49501 57.7696 8.17565 57.7057 7.98403C57.6419 7.79242 57.578 7.53693 57.5141 7.40918C57.3864 7.21757 57.3225 7.08982 57.1309 6.96208C56.9393 6.83433 56.6838 6.77046 56.4283 6.77046C55.9173 6.77046 55.5341 6.96208 55.2786 7.28144C54.9592 7.6008 54.8315 8.17565 54.8315 9.00599V14.6906H50.8075V0H54.8315V5.23752C55.087 4.66267 55.5341 4.21557 56.1728 3.96008ZM66.1369 14.5629C65.3704 14.3074 64.7317 13.8603 64.2207 13.3493C63.7097 12.8383 63.3265 12.1996 63.071 11.497C62.8155 10.7305 62.6239 10.0279 62.6239 9.13373C62.6239 8.30339 62.8155 7.47305 63.1349 6.77046C63.4542 6.06786 63.9013 5.42914 64.3484 4.98204C64.8594 4.47106 65.4981 4.1517 66.2007 3.83234C66.9033 3.57685 67.6698 3.38523 68.5001 3.38523C69.4582 3.38523 70.2886 3.57685 71.055 3.89621C71.8215 4.27944 72.4602 4.72655 72.9712 5.36527C73.4822 6.00399 73.8654 6.70659 74.1209 7.53693C74.3764 8.36727 74.4403 9.26148 74.3764 10.2196H66.5201C66.584 10.7305 66.7756 11.2415 67.2227 11.5609C67.6059 11.8802 68.1169 12.0719 68.7556 12.0719C69.1389 12.0719 69.5221 11.9441 69.9053 11.8164C70.2886 11.6886 70.4802 11.3693 70.6718 11.1138H74.5041C74.3764 11.5609 74.1848 11.9441 73.8654 12.3912C73.6099 12.9022 73.1628 13.2854 72.7157 13.6687C72.2047 14.0519 71.6938 14.4351 70.9912 14.6267C70.3524 14.8822 69.586 15.01 68.6918 15.01C67.7337 15.01 66.8395 14.8184 66.1369 14.5629ZM68.1169 6.25948C67.9253 6.32335 67.6698 6.4511 67.4782 6.57884C67.2866 6.77046 67.095 6.8982 66.9672 7.08982C66.7756 7.28144 66.7117 7.6008 66.6479 7.92016H70.8634C70.7995 7.6008 70.7357 7.34531 70.6079 7.08982C70.4163 6.8982 70.2886 6.64271 70.0969 6.57884C69.9053 6.38723 69.6498 6.32335 69.4582 6.25948C69.2666 6.19561 68.9473 6.13174 68.7556 6.13174C68.5001 6.13174 68.3724 6.19561 68.1169 6.25948ZM44.8035 22.3553V31.6806H40.7796V16.9261H46.0171L50.7437 26.3154V16.9261H54.7676V31.6168H49.5301L44.8035 22.3553ZM62.6878 23.6966C62.56 23.505 62.4961 23.3772 62.3045 23.2495C62.1129 23.1218 61.9852 23.0579 61.7936 23.0579C61.6019 23.0579 61.3465 22.994 61.1548 22.994C60.6439 22.994 60.1968 23.1218 59.8774 23.3134C59.558 23.505 59.3664 23.8882 59.3025 24.3992H55.7896C55.8534 23.8882 55.9812 23.3772 56.2367 22.9301C56.4922 22.4192 56.8754 22.0359 57.3225 21.6527C57.8335 21.2695 58.4083 20.9501 59.047 20.7585C59.7496 20.5669 60.5161 20.4391 61.4742 20.4391C62.3045 20.4391 62.9433 20.5669 63.6459 20.6946C64.2846 20.8862 64.8594 21.1417 65.3704 21.525C65.8814 21.9082 66.2007 22.3553 66.5201 22.994C66.7756 23.6327 66.9033 24.3992 66.9033 25.2934V28.487C66.9033 28.8703 66.9033 29.2535 66.9672 29.6367C66.9672 30.02 67.0311 30.4671 67.0311 30.7864C67.095 31.1697 67.095 31.489 67.1588 31.8084H63.3904V30.3393C62.9433 30.9142 62.4323 31.4252 61.7936 31.6168C61.1548 31.8723 60.3884 32 59.6858 32C59.1748 32 58.6638 31.9361 58.2167 31.8084C57.7057 31.6168 57.3225 31.4252 57.0031 31.1058C56.6199 30.8503 56.3644 30.4671 56.1728 30.0838C55.9812 29.7006 55.8534 29.2535 55.8534 28.7425C55.8534 28.1038 56.0451 27.5928 56.3644 27.0818C56.6838 26.5709 57.1948 26.2515 57.7696 25.9321C58.4083 25.6128 59.1748 25.4212 60.069 25.1657C60.9632 24.9741 61.9852 24.8463 63.1349 24.7824V24.4631C62.8155 24.0798 62.7516 23.8882 62.6878 23.6966ZM60.5161 27.1457C60.0051 27.3373 59.6858 27.6567 59.6858 28.1677C59.6858 28.3593 59.8135 28.6786 60.0051 28.8703C60.1967 29.0619 60.5161 29.1896 61.0271 29.1896C61.2826 29.1896 61.5381 29.1257 61.7936 29.0619C61.9852 28.998 62.2407 28.8703 62.4323 28.7425C62.6239 28.5509 62.7516 28.3593 62.8794 28.1038C63.0071 27.8483 63.071 27.4651 63.071 27.0818V26.7625C61.9213 26.8263 61.0271 26.9541 60.5161 27.1457ZM73.1628 17.6926V20.6946H75.9093V23.2495H73.1628V28.1038C73.1628 28.4232 73.2267 28.6148 73.3544 28.6786C73.4822 28.8064 73.6738 28.8703 73.9293 28.8703H75.9093V31.6168H73.0989C72.3325 31.6168 71.6938 31.5529 71.1828 31.489C70.6718 31.4252 70.2886 31.2974 69.9692 31.0419C69.6498 30.7864 69.4582 30.5309 69.2666 30.02C69.075 29.5729 69.075 28.998 69.075 28.2315V23.1856H66.9033V20.6307H69.075V17.6926H73.1628ZM80.8914 19.8004H76.8674V16.9261H80.8914V19.8004ZM80.8914 31.6168H76.8674V20.6946H80.8914V31.6168ZM85.4902 31.5529C84.7237 31.3613 84.085 30.978 83.574 30.4671C83.063 29.9561 82.6159 29.3812 82.2965 28.6786C81.9772 27.9761 81.7856 27.1457 81.7856 26.1876C81.7856 25.2295 81.9772 24.3992 82.2965 23.6966C82.6159 22.994 83.063 22.3553 83.574 21.9082C84.085 21.3972 84.7237 21.0778 85.4902 20.8224C86.2566 20.5669 86.9592 20.4391 87.7896 20.4391C88.6199 20.4391 89.3864 20.5669 90.089 20.8224C90.8554 21.0778 91.4941 21.3972 92.0051 21.9082C92.5161 22.4192 92.9632 22.994 93.3465 23.6966C93.6658 24.3992 93.8574 25.2295 93.8574 26.1876C93.8574 27.1457 93.6658 27.9761 93.3465 28.6786C93.0271 29.3812 92.58 30.02 92.0051 30.4671C91.4941 30.978 90.8554 31.2974 90.089 31.5529C89.3225 31.7445 88.6199 31.9361 87.7896 31.9361C86.9592 31.8723 86.2566 31.7445 85.4902 31.5529ZM86.5121 24.016C86.1289 24.4631 86.0011 25.1657 86.0011 26.1238C86.0011 26.6347 86.065 27.0818 86.1928 27.4012C86.3205 27.7206 86.3844 28.0399 86.576 28.2315C86.7676 28.4232 86.9592 28.6148 87.1508 28.7425C87.3425 28.8703 87.6618 28.9341 87.9173 28.9341C88.1728 28.9341 88.4283 28.8703 88.6838 28.7425C88.8754 28.6148 89.1309 28.487 89.2586 28.2315C89.4502 28.0399 89.5141 27.7206 89.6419 27.4012C89.7696 27.0818 89.8335 26.5709 89.8335 26.1238C89.8335 25.1018 89.6419 24.3992 89.3225 24.016C88.9393 23.5689 88.4922 23.4411 88.0451 23.4411C87.2786 23.3772 86.8954 23.6327 86.5121 24.016ZM100.117 20.8862C100.692 20.6307 101.33 20.4391 102.097 20.4391C102.8 20.4391 103.311 20.5669 103.821 20.7585C104.332 20.9501 104.652 21.2695 104.971 21.5888C105.227 21.9721 105.482 22.4192 105.546 22.994C105.61 23.5689 105.738 24.1437 105.738 24.7824V31.6168H101.714V25.5489C101.714 25.3573 101.714 25.0379 101.65 24.8463C101.586 24.6547 101.522 24.3992 101.458 24.2715C101.33 24.0798 101.267 23.9521 101.075 23.8244C100.883 23.6966 100.628 23.6327 100.372 23.6327C99.8614 23.6327 99.4782 23.8244 99.2227 24.1437C98.9033 24.4631 98.7756 25.0379 98.7756 25.8683V31.5529H94.7516V20.6307H98.7756V22.0998C99.1588 21.5888 99.5421 21.1417 100.117 20.8862ZM113.722 23.6966C113.594 23.505 113.53 23.3772 113.338 23.2495C113.147 23.1218 113.019 23.0579 112.827 23.0579C112.636 22.994 112.38 22.994 112.189 22.994C111.678 22.994 111.231 23.1218 110.911 23.3134C110.592 23.505 110.4 23.8882 110.336 24.3992H106.823C106.887 23.8882 107.015 23.3772 107.271 22.9301C107.526 22.4192 107.909 22.0359 108.356 21.6527C108.867 21.2695 109.442 20.9501 110.081 20.7585C110.784 20.5669 111.55 20.4391 112.508 20.4391C113.338 20.4391 113.977 20.5669 114.68 20.6946C115.319 20.8862 115.893 21.1417 116.404 21.525C116.915 21.9082 117.235 22.3553 117.554 22.994C117.81 23.6327 117.937 24.3992 117.937 25.2934V28.487C117.937 28.8703 117.937 29.2535 118.001 29.6367C118.001 30.02 118.065 30.4671 118.065 30.7864C118.129 31.1697 118.129 31.489 118.193 31.8084H114.424V30.3393C113.977 30.9142 113.466 31.4252 112.827 31.6168C112.189 31.8723 111.422 32 110.72 32C110.209 32 109.698 31.9361 109.251 31.8084C108.74 31.6168 108.356 31.4252 108.037 31.1058C107.654 30.8503 107.398 30.4671 107.207 30.0838C107.015 29.7006 106.887 29.2535 106.887 28.7425C106.887 28.1038 107.079 27.5928 107.398 27.0818C107.718 26.5709 108.229 26.2515 108.804 25.9321C109.442 25.6128 110.209 25.4212 111.103 25.1657C111.997 24.9741 113.019 24.8463 114.169 24.7824V24.4631C113.849 24.0798 113.786 23.8882 113.722 23.6966ZM111.55 27.1457C111.039 27.3373 110.72 27.6567 110.72 28.1677C110.72 28.3593 110.847 28.6786 111.039 28.8703C111.231 29.0619 111.55 29.1896 112.061 29.1896C112.317 29.1896 112.572 29.1257 112.827 29.0619C113.019 28.998 113.275 28.8703 113.466 28.7425C113.658 28.5509 113.786 28.3593 113.913 28.1038C114.041 27.8483 114.105 27.4651 114.105 27.0818V26.7625C112.955 26.8263 112.061 26.9541 111.55 27.1457ZM118.768 31.6168V16.9261H122.792V31.6168H118.768ZM22.9592 0V4.91816H26.9193V26.6986H22.9592V31.6168H31.8375V0H22.9592ZM0.220703 31.6168H9.09895V26.6986H5.20274V4.91816H9.09895V0H0.220703V31.6168ZM11.079 0V4.91816L20.9792 15.7764V0H11.079ZM11.079 31.6168H20.9792V26.6986L11.079 15.7764V31.6168Z" fill="#5E6473"/>
</svg>
