<svg width="93" height="28" viewBox="0 0 93 28" fill="none" xmlns="http://www.w3.org/2000/svg">
<path d="M0.386719 0.360049H24.0567V5.76005H23.6267L23.6767 2.30005H14.3267V26.66H17.0267V27.46H7.78672V26.66H10.2867V2.30005H0.836719V5.76005H0.386719V0.360049ZM25.1867 0.360049H34.4867V1.11005H31.8367V26.67H34.4767V27.47H25.1767V26.67H27.8767V1.10005H25.1767V0.360049H25.1867ZM42.6867 0.300049H44.4667L53.1667 21.2001L61.8067 0.300049H63.5367L68.3867 26.66H70.8267V27.46H61.2267V26.66H63.6967L60.6967 9.81005L53.0167 27.48H51.2167L43.6167 9.82005L40.4167 26.68H42.7467L42.6967 27.48H35.6267L35.6767 26.68H37.8367L42.6867 0.300049ZM71.6367 0.360049H92.1067L92.1567 5.71005H91.7867L91.6167 2.41005L78.2167 2.26005V12.96H89.6167L89.8867 10.46H90.3867C90.2667 12.74 90.2667 14.96 90.3867 17.22H89.8867L89.6167 14.64H78.2167V25.7001H92.1167L92.1567 22.0201H92.5367V27.47H71.6367V26.71L74.3367 26.67V1.16005L71.6367 1.11005V0.370049V0.360049Z" fill="#5E6473"/>
</svg>
