<svg width="64" height="64" viewBox="0 0 64 64" fill="none" xmlns="http://www.w3.org/2000/svg">
<path d="M9.25 54.207L9.28921 52.2074C8.20422 52.1861 7.30022 53.034 7.25198 54.1181C7.20374 55.2022 8.02885 56.127 9.11144 56.2022L9.25 54.207ZM32.2992 21.0288L33.7688 22.3853L32.2992 21.0288ZM43.4848 10.5031L42.0152 11.8596L43.4848 10.5031ZM42.0152 10.5031L43.4848 11.8596L42.0152 10.5031ZM53.2008 21.0288L54.6704 19.6722L53.2008 21.0288ZM48.159 23.6314L50.1473 23.8476L48.159 23.6314ZM37.1994 23.7588L39.1961 23.8743L37.1994 23.7588ZM9.21079 56.2066C13.7885 56.2964 20.8809 54.8541 27.055 50.0342C33.305 45.1551 38.4399 36.9491 39.1961 23.8743L35.2028 23.6433C34.5071 35.6702 29.8594 42.7704 24.5936 46.8812C19.252 51.0511 13.0957 52.2821 9.28921 52.2074L9.21079 56.2066ZM9.11144 56.2022C15.3398 56.6348 24.7595 55.5487 33.0594 50.8672C41.4592 46.1294 48.6369 37.7371 50.1473 23.8476L46.1707 23.4152C44.8112 35.918 38.4659 43.2253 31.0943 47.3832C23.6229 51.5974 15.023 52.6031 9.38856 52.2118L9.11144 56.2022ZM49.1656 24.707H52.466V20.707H49.1656V24.707ZM54.6704 19.6722L44.9544 9.14651L42.0152 11.8596L51.7312 22.3853L54.6704 19.6722ZM40.5456 9.14651L30.8296 19.6722L33.7688 22.3853L43.4848 11.8596L40.5456 9.14651ZM33.034 24.707H36.2108V20.707H33.034V24.707ZM30.8296 19.6722C29.0557 21.5939 30.4187 24.707 33.034 24.707V20.707C33.9057 20.707 34.3601 21.7447 33.7688 22.3853L30.8296 19.6722ZM44.9544 9.14651C43.7665 7.85963 41.7335 7.85963 40.5456 9.14651L43.4848 11.8596C43.0888 12.2886 42.4112 12.2886 42.0152 11.8596L44.9544 9.14651ZM52.466 24.707C55.0813 24.707 56.4443 21.5939 54.6704 19.6722L51.7312 22.3853C51.1399 21.7447 51.5943 20.707 52.466 20.707V24.707ZM50.1473 23.8476C50.0993 24.2893 49.7256 24.707 49.1656 24.707V20.707C47.5693 20.707 46.3308 21.9431 46.1707 23.4152L50.1473 23.8476ZM39.1961 23.8743C39.2946 22.1708 37.939 20.707 36.2108 20.707V24.707C35.6173 24.707 35.1698 24.214 35.2028 23.6433L39.1961 23.8743Z" fill="#3b5998"/>
</svg>
