<svg width="64" height="64" viewBox="0 0 64 64" fill="none" xmlns="http://www.w3.org/2000/svg">
<path d="M23.2993 16.49C23.5309 15.6119 24.3251 15 25.2332 15H38.7668C39.6749 15 40.4691 15.6119 40.7007 16.49L43.338 26.49C43.6725 27.7584 42.7159 29 41.4041 29H22.5959C21.2841 29 20.3275 27.7584 20.662 26.49L23.2993 16.49Z" stroke="#41CE8E" stroke-width="4" stroke-linejoin="round"/>
<path d="M8.29935 36.49C8.53094 35.6119 9.32508 35 10.2332 35H23.7668C24.6749 35 25.4691 35.6119 25.7007 36.49L28.338 46.49C28.6725 47.7584 27.7159 49 26.4041 49H7.59586C6.28406 49 5.32746 47.7584 5.66199 46.49L8.29935 36.49Z" stroke="#41CE8E" stroke-width="4" stroke-linejoin="round"/>
<path d="M37.8853 36.49C38.1169 35.6119 38.911 35 39.8192 35H53.3527C54.2609 35 55.055 35.6119 55.2866 36.49L57.924 46.49C58.2585 47.7584 57.3019 49 55.9901 49H37.1818C35.87 49 34.9134 47.7584 35.2479 46.49L37.8853 36.49Z" stroke="#41CE8E" stroke-width="4" stroke-linejoin="round"/>
</svg>
